<?xml version="1.0" encoding="UTF-8" standalone="no"?>
<svg
   xmlns:dc="http://purl.org/dc/elements/1.1/"
   xmlns:cc="http://creativecommons.org/ns#"
   xmlns:rdf="http://www.w3.org/1999/02/22-rdf-syntax-ns#"
   xmlns:svg="http://www.w3.org/2000/svg"
   xmlns="http://www.w3.org/2000/svg"
   xmlns:xlink="http://www.w3.org/1999/xlink"
   xmlns:sodipodi="http://sodipodi.sourceforge.net/DTD/sodipodi-0.dtd"
   xmlns:inkscape="http://www.inkscape.org/namespaces/inkscape"
   width="210mm"
   height="297mm"
   viewBox="0 0 210 297"
   version="1.1"
   id="svg8"
   inkscape:version="1.0.1 (c497b03c, 2020-09-10)"
   sodipodi:docname="gimp2.svg">
  <defs
     id="defs2" />
  <sodipodi:namedview
     id="base"
     pagecolor="#ffffff"
     bordercolor="#666666"
     borderopacity="1.0"
     inkscape:pageopacity="0.0"
     inkscape:pageshadow="2"
     inkscape:zoom="5.6"
     inkscape:cx="174.42979"
     inkscape:cy="482.42682"
     inkscape:document-units="mm"
     inkscape:current-layer="layer1"
     inkscape:document-rotation="0"
     showgrid="false"
     inkscape:window-width="1344"
     inkscape:window-height="786"
     inkscape:window-x="0"
     inkscape:window-y="25"
     inkscape:window-maximized="0" />
  <metadata
     id="metadata5">
    <rdf:RDF>
      <cc:Work
         rdf:about="">
        <dc:format>image/svg+xml</dc:format>
        <dc:type
           rdf:resource="http://purl.org/dc/dcmitype/StillImage" />
        <dc:title />
      </cc:Work>
    </rdf:RDF>
  </metadata>
  <g
     inkscape:label="Laag 1"
     inkscape:groupmode="layer"
     id="layer1">
    <image
       sodipodi:absref="/Users/jolijn/Desktop/logos/afbeeldingen/Logo-300x219.png"
       xlink:href="../afbeeldingen/Logo-300x219.png"
       width="114.1488"
       height="84.024109"
       preserveAspectRatio="none"
       id="image885"
       x="7.9374995"
       y="12.605507"
       style="stroke-width:0.69248" />
    <path
       id="path891"
       style="fill:#800000;stroke:none;stroke-width:0.999999px;stroke-linecap:butt;stroke-linejoin:miter;stroke-opacity:1"
       d="M 56.224609 152.60742 C 50.465245 152.73552 45.065686 154.29751 40.443359 157.73828 C 19.312717 173.46751 30.167123 219.73497 46.009766 238.625 C 61.852408 257.51503 93.174629 268.18345 110.95898 254.35156 C 128.74334 240.51968 125.90108 206.10341 112.44336 185.82422 C 101.92951 169.9811 76.793767 152.14992 56.224609 152.60742 z M 59.126953 162.85742 C 68.363895 162.99252 76.869062 174.80394 76.785156 184.56641 C 76.701262 194.32887 67.014195 208.4071 57.164062 207.85547 C 47.313933 207.30383 40.496499 193.21154 41.074219 183.77734 C 41.651927 174.34315 49.890003 162.72234 59.126953 162.85742 z "
       transform="scale(0.26458333)" />
    <path
       id="path923"
       style="fill:#800000;stroke:none;stroke-width:0.999999px;stroke-linecap:butt;stroke-linejoin:miter;stroke-opacity:1"
       d="M 282.8418 245.21484 C 278.12775 246.73007 275.43515 249.25548 274.76172 252.79102 L 306.58203 275.51953 L 354.56445 300.77344 L 355.57422 300.77344 C 355.57422 300.77344 355.69431 307.73094 357.08984 309.61133 C 361.15046 313.08703 365.09833 311.57264 366.68555 311.88477 C 373.10964 313.18859 398.25195 325.24805 398.25195 325.24805 C 398.25195 325.24805 402.8481 335.01516 406.83984 338.6543 C 410.83159 342.29343 413.94122 342.58168 421.48633 346.23047 C 429.03144 349.87926 445.70645 356.80383 452.29492 360.11914 C 458.88339 363.43445 461.42773 365.21484 461.42773 365.21484 C 461.42773 365.21484 457.38204 350.53599 454.82031 342.18945 C 452.25859 333.84292 449.58526 321.66319 445.98242 315.16797 C 442.37959 308.67274 439.24365 305.5321 435.62891 302.79297 C 432.01417 300.05384 429.98662 298.94984 425.52734 298.24805 C 421.06807 297.54625 409.61719 300.01562 409.61719 300.01562 L 394.46484 291.17578 L 377.79688 281.32812 C 377.79688 281.32812 375.56316 277.77438 373.25195 277.53906 C 370.94074 277.30375 366.17969 281.32813 366.17969 281.32812 L 343.19922 268.19531 L 304.05664 253.54883 L 282.8418 245.21484 z M 372.74609 284.10547 L 374.26172 286.88281 L 404.06055 304.81445 L 398.25195 317.1875 C 398.25195 317.1875 377.57856 310.12148 372.49414 307.5918 C 367.40972 305.06211 368.8679 304.66666 366.9375 304.05664 C 365.0071 303.44662 361.38281 303.80273 361.38281 303.80273 C 361.38281 303.80273 362.31221 297.37044 364.16016 293.95508 C 366.00811 290.53971 372.74609 284.10547 372.74609 284.10547 z "
       transform="scale(0.26458333)" />
    <path
       style="fill:#800000;stroke:none;stroke-width:0.264583px;stroke-linecap:butt;stroke-linejoin:miter;stroke-opacity:1"
       d="m 26.600073,42.002604 c 0,0 0.724393,-2.523595 1.417413,-3.732514 0.69302,-1.208919 2.740326,-3.401788 2.740326,-3.401788 l 0.330729,-12.709448 4.063244,5.669642 3.968749,3.874257 c 0,0 2.626207,0.166593 3.779764,0.519716 1.153557,0.353123 2.119712,0.892687 3.071056,1.511906 0.951344,0.619219 1.972728,1.897965 2.598586,2.173364 0.625858,0.275399 -0.06354,0.324858 0.708705,0.09449 0.772243,-0.230368 1.931598,-1.901943 3.118303,-2.69308 1.186705,-0.791137 2.249545,-1.557689 3.96875,-1.984375 1.719205,-0.426686 4.192393,-0.526795 6.18936,-0.141742 1.996967,0.385053 5.527903,2.36235 5.527903,2.36235 l 1.606399,1.27567 c 0,0 6.732453,-1.750516 9.827379,-3.118302 3.094926,-1.367786 5.885038,-2.671405 8.646207,-5.008184 2.761169,-2.336779 5.877576,-6.627536 7.465029,-9.024182 1.587453,-2.396646 2.55134,-4.913691 2.55134,-4.913691 0,0 1.07168,3.810107 1.511905,7.890253 0.44022,4.080146 0.59211,12.191461 0.42522,16.583706 -0.166887,4.392245 -0.469625,6.404062 -0.992185,9.732886 -0.52256,3.328824 -1.200047,7.255484 -2.173364,10.205357 -0.973317,2.949873 -2.396709,5.589711 -3.401785,7.465029 -1.005076,1.875318 -2.409597,3.874256 -2.409597,3.874256 l -11.76451,-4.724701 c 0,0 -0.948649,-1.404064 -2.267857,-2.362351 -1.319208,-0.958287 -5.858632,-2.834823 -5.858632,-2.834823 l 3.118305,3.590775 c 0,0 -1.547629,1.528635 -3.260045,2.409597 -1.712416,0.880962 -4.394718,1.794981 -7.134302,2.315104 -2.739584,0.520123 -5.974752,0.70046 -9.213167,0.566965 C 51.520886,67.335251 44.648437,66.00409 44.648437,66.00409 l 4.960937,2.031621 c 0,0 6.941572,1.798796 9.827382,2.126115 2.88581,0.327319 7.370535,0.09449 7.370535,0.09449 l 3.96875,-1.181174 11.622767,7.512278 c 0,0 -1.942777,1.374282 -3.827007,2.173361 -1.88423,0.799079 -5.067002,1.804116 -7.559524,2.220611 -2.492522,0.416495 -4.552224,0.396849 -7.276042,0.330729 -2.723818,-0.06612 -5.799242,-0.226851 -9.024183,-0.850447 -3.224941,-0.623596 -6.933341,-1.844733 -10.205355,-3.023809 -3.272014,-1.179076 -6.878788,-2.716318 -9.402159,-4.015997 -2.523371,-1.299679 -5.811382,-3.543527 -5.811382,-3.543527 l 2.882066,-1.937129 2.456847,-3.77976 0.755951,-4.582962 -0.236235,-3.96875 -0.661459,-2.267858 c 0,0 1.652241,1.012745 2.976563,1.228424 1.324322,0.215679 3.264509,0.182884 4.819197,-0.330729 1.554688,-0.513613 3.183538,-1.675746 4.204986,-2.69308 1.021448,-1.017334 1.984375,-3.071056 1.984375,-3.071056 0,0 0.693474,2.237725 1.370163,3.307292 0.676689,1.069567 1.597843,2.106666 2.69308,2.976562 1.095237,0.869896 2.335456,1.670761 3.827008,2.126115 1.491552,0.455354 3.334649,0.590204 4.960937,0.425222 1.626288,-0.164982 3.28242,-0.622822 4.630208,-1.370163 1.347788,-0.747341 2.342965,-1.745981 3.307292,-2.929316 0.964327,-1.183335 1.869123,-2.429337 2.362353,-4.11049 0.49323,-1.681153 0.659744,-3.888668 0.28348,-5.764138 -0.376264,-1.87547 -1.200354,-3.573379 -2.456844,-5.149924 -1.25649,-1.576545 -3.264899,-3.209675 -5.008184,-3.96875 -1.743285,-0.759075 -3.274543,-0.833174 -4.960937,-0.755952 -1.686394,0.07722 -3.469345,0.437748 -4.960938,1.228421 -1.491593,0.790673 -2.881366,2.4531 -3.732514,3.354538 -0.851148,0.901438 -1.201808,1.258722 -1.511906,1.889882 -0.310098,0.63116 -0.425222,1.748139 -0.425222,1.748139 0,0 -0.538303,-1.364789 -1.039434,-2.173361 -0.501131,-0.808572 -1.206622,-1.822102 -2.031625,-2.598587 -0.825003,-0.776485 -1.776357,-1.511758 -2.882066,-1.984375 -1.105709,-0.472617 -2.373066,-0.727018 -3.638021,-0.755952 -1.264955,-0.02893 -2.575853,0.132845 -3.82701,0.614212 -1.251157,0.481367 -2.573437,1.386871 -3.496278,2.267855 -0.922841,0.880984 -1.587008,1.970209 -2.031624,2.834823 -0.444616,0.864614 -0.611644,1.504622 -0.755952,2.22061 -0.144308,0.715988 -0.14174,2.031622 -0.14174,2.031622 z"
       id="path933"
       sodipodi:nodetypes="czcccczzzzzzzcczzzczzzzzcczcczzzcczccczzzzzzcccccczzzczzzzzzzzzzzzzzczzzzzzzzcc" />
    <path
       style="fill:#800000;stroke:none;stroke-width:0.264583px;stroke-linecap:butt;stroke-linejoin:miter;stroke-opacity:1"
       d="m 36.616444,45.286271 c 0,0 2.315104,2.976562 5.031806,0.94494 2.716704,-2.031621 0.307107,-5.008184 0.307107,-5.008184 0,0 1.19995,0.03699 1.937128,0.472472 0.737178,0.435477 1.753119,1.416269 2.126115,2.315104 0.372996,0.898835 0.287974,1.843167 0.118118,2.69308 -0.169856,0.849913 -0.498203,1.608216 -1.063059,2.267858 -0.564856,0.659642 -1.365923,1.239608 -2.244232,1.511903 -0.878309,0.272295 -1.838976,0.329361 -2.811198,0.02363 -0.972222,-0.305731 -2.119807,-1.196914 -2.69308,-1.913505 -0.573273,-0.716591 -0.76771,-1.456549 -0.850447,-2.031622 -0.08274,-0.575073 0.141742,-1.275676 0.141742,-1.275676 z"
       id="path935"
       sodipodi:nodetypes="csczzzzzzzzc" />
    <path
       style="fill:#800000;stroke:none;stroke-width:0.26458300000000001px;stroke-linecap:butt;stroke-linejoin:miter;stroke-opacity:1"
       d="m 57.128862,46.838983 c 0,0 -0.09011,1.436161 0.100224,2.10475 0.190332,0.668589 0.425978,1.165876 1.002263,1.804067 0.576285,0.638191 1.565261,1.418083 2.53906,1.770663 0.973799,0.35258 1.978445,0.533637 3.107008,0.267269 1.128563,-0.266368 2.507056,-1.063486 3.274052,-2.004523 0.766996,-0.941037 1.0656,-2.187246 1.169302,-3.240643 0.103702,-1.053397 -0.0011,-1.948954 -0.434311,-2.873148 -0.433213,-0.924194 -1.32012,-1.836315 -2.138156,-2.405425 -0.818036,-0.56911 -2.57247,-1.00226 -2.57247,-1.00226 0,0 0.641692,0.931235 0.868625,1.570209 0.226933,0.638974 0.47974,1.496484 0.400904,2.238381 -0.07884,0.741897 -0.329795,1.448126 -0.835215,2.037932 -0.50542,0.589806 -1.289287,1.070876 -2.10475,1.269529 -0.815463,0.198653 -1.816222,0.115129 -2.572467,-0.167042 -0.756245,-0.282171 -1.804069,-1.369759 -1.804069,-1.369759 z"
       id="path937"
       sodipodi:nodetypes="czzzzzzzzczzzzzc" />
  </g>
</svg>
