<?xml version="1.0" encoding="UTF-8" standalone="no"?>
<svg
   xmlns:dc="http://purl.org/dc/elements/1.1/"
   xmlns:cc="http://creativecommons.org/ns#"
   xmlns:rdf="http://www.w3.org/1999/02/22-rdf-syntax-ns#"
   xmlns:svg="http://www.w3.org/2000/svg"
   xmlns="http://www.w3.org/2000/svg"
   xmlns:xlink="http://www.w3.org/1999/xlink"
   xmlns:sodipodi="http://sodipodi.sourceforge.net/DTD/sodipodi-0.dtd"
   xmlns:inkscape="http://www.inkscape.org/namespaces/inkscape"
   width="210mm"
   height="297mm"
   viewBox="0 0 210 297"
   version="1.1"
   id="svg8"
   inkscape:version="1.0.1 (c497b03c, 2020-09-10)"
   sodipodi:docname="git.svg">
  <defs
     id="defs2" />
  <sodipodi:namedview
     id="base"
     pagecolor="#ffffff"
     bordercolor="#666666"
     borderopacity="1.0"
     inkscape:pageopacity="0.0"
     inkscape:pageshadow="2"
     inkscape:zoom="3.959798"
     inkscape:cx="584.95153"
     inkscape:cy="179.78941"
     inkscape:document-units="mm"
     inkscape:current-layer="layer1"
     inkscape:document-rotation="0"
     showgrid="false"
     inkscape:window-width="1403"
     inkscape:window-height="786"
     inkscape:window-x="0"
     inkscape:window-y="25"
     inkscape:window-maximized="0" />
  <metadata
     id="metadata5">
    <rdf:RDF>
      <cc:Work
         rdf:about="">
        <dc:format>image/svg+xml</dc:format>
        <dc:type
           rdf:resource="http://purl.org/dc/dcmitype/StillImage" />
        <dc:title />
      </cc:Work>
    </rdf:RDF>
  </metadata>
  <g
     inkscape:label="Laag 1"
     inkscape:groupmode="layer"
     id="layer1">
    <image
       sodipodi:absref="/Users/jolijn/Desktop/logos/afbeeldingen/git-icon-logo-png-transparent.png"
       xlink:href="../afbeeldingen/git-icon-logo-png-transparent.png"
       width="104.71584"
       height="104.71584"
       preserveAspectRatio="none"
       id="image843"
       x="20.396931"
       y="10.019287"
       style="stroke-width:6.32768" />
    <path
       style="fill:#dd4b35;stroke:none;stroke-width:1"
       d="m 76.5508,49.069569 v 19.197904 6.195687 c 0,0.943315 -0.153583,2.033669 0.0065,2.962586 0.04363,0.253063 0.535796,0.412318 0.735192,0.537977 0.602553,0.379595 1.174563,0.851253 1.645348,1.386176 1.569865,1.782788 2.366578,4.17729 1.993964,6.54474 -0.16929,1.075083 -0.528815,2.137512 -1.123514,3.054212 -0.656219,1.010072 -1.500054,1.890121 -2.515798,2.544159 -3.298985,2.124859 -7.683961,1.431553 -10.28964,-1.453369 -0.697233,-0.772279 -1.21863,-1.687234 -1.575973,-2.661527 -1.00789,-2.7501 -0.286224,-5.857542 1.624841,-8.028215 0.579864,-0.658837 1.310257,-1.226484 2.081663,-1.644475 0.30324,-0.164491 0.821147,-0.267025 0.829001,-0.667999 0.123913,-6.510271 0,-13.035377 0,-19.546957 v -6.108424 -1.876159 c 0,-0.262095 0.06065,-0.611191 -0.01396,-0.863338 C 69.8948,48.460865 69.63301,48.409728 69.482481,48.337256 69.07278,48.14026 68.670933,47.89169 68.304428,47.622963 67.26425,46.859978 66.405581,45.860596 65.828335,44.706409 65.182151,43.415306 64.830043,41.87895 65.001079,40.430512 c 0.06981,-0.591164 0.169291,-1.176395 0.351235,-1.745264 0.06065,-0.189361 0.262662,-0.503421 0.167981,-0.698105 -0.203323,-0.417206 -0.771843,-0.80701 -1.09908,-1.134422 l -2.443369,-2.44337 -8.246373,-8.246372 c -1.011773,0.712722 -1.87293,1.829298 -2.74879,2.705159 l -5.45395,5.45395 -16.929061,16.929061 -4.799476,4.799476 c -1.569342,1.569429 -3.118456,3.080827 -3.352261,5.410318 -0.176941,1.762717 0.26003,3.508854 1.340796,4.930371 0.775608,1.020107 1.804943,1.88794 2.70957,2.792423 l 5.890266,5.890266 29.97491,29.974907 5.803002,5.803 c 0.859979,0.85998 1.683744,1.82555 2.661528,2.55333 1.226484,0.91277 2.752718,1.36654 4.275897,1.32945 3.409373,-0.0838 5.557357,-2.98266 7.766425,-5.19172 l 14.660217,-14.660221 21.423114,-21.423116 4.84311,-4.843107 c 1.39359,-1.393594 2.79591,-2.73352 3.17376,-4.755845 0.36171,-1.938115 -0.0511,-3.914627 -1.24961,-5.497581 -0.79715,-1.052831 -1.86438,-1.947279 -2.79678,-2.879686 L 114.85934,49.418622 88.069543,22.628819 80.172223,14.7315 c -1.404065,-1.404074 -2.765807,-3.167318 -4.581318,-4.04646 -2.039341,-0.9873336 -4.522852,-0.8533815 -6.457477,0.313776 -1.05763,0.63796 -1.883576,1.602031 -2.748791,2.467367 l -4.057738,4.057739 -2.923318,2.923317 c -0.211177,0.211177 -0.950863,0.736982 -0.950863,1.047159 0,0.253674 0.521092,0.617387 0.689074,0.785369 l 2.050685,2.050685 6.54474,6.54474 1.832527,1.832527 c 0.22863,0.228717 0.52227,0.660015 0.829001,0.776119 0.188052,0.07125 0.509617,-0.09106 0.698105,-0.13792 0.515726,-0.128364 1.04105,-0.20533 1.570738,-0.241631 1.411918,-0.09669 2.909355,0.299705 4.145002,0.969494 2.373995,1.286914 3.926844,3.728102 4.181216,6.400363 0.07679,0.806225 -0.0092,1.656124 -0.185871,2.443369 -0.0733,0.327499 -0.319383,0.716868 -0.06545,1.003527 0.75919,0.856096 1.630949,1.634135 2.440315,2.44337 l 4.843108,4.843107 2.705159,2.70516 c 0.424972,0.424971 0.852998,1.000472 1.35258,1.33469 0.288841,0.193288 1.180671,-0.19067 1.527106,-0.247391 1.067665,-0.174963 2.183761,-0.101225 3.228738,0.172781 4.628009,1.215577 7.392509,6.652947 5.268079,11.044031 -0.5131,1.060684 -1.18939,2.002254 -2.08297,2.779769 -3.208234,2.79155 -8.041306,2.478275 -10.995165,-0.510926 -1.464713,-1.482602 -2.408901,-3.742719 -2.264917,-5.846634 0.04451,-0.648802 0.141367,-1.293241 0.320256,-1.919791 0.0637,-0.22383 0.313275,-0.646184 0.232557,-0.872632 -0.118678,-0.332909 -0.615206,-0.669309 -0.862161,-0.916263 L 84.360857,56.835994 79.168696,51.643833 C 78.33446,50.80951 77.514622,49.74852 76.5508,49.069569 Z"
       id="path853" />
    <path
       style="fill:#000000;stroke-width:1"
       id="path849"
       d="" />
    <path
       style="fill:#000000;stroke-width:1"
       id="path847"
       d="" />
  </g>
</svg>
