<?xml version="1.0" encoding="UTF-8" standalone="no"?>
<svg
   xmlns:dc="http://purl.org/dc/elements/1.1/"
   xmlns:cc="http://creativecommons.org/ns#"
   xmlns:rdf="http://www.w3.org/1999/02/22-rdf-syntax-ns#"
   xmlns:svg="http://www.w3.org/2000/svg"
   xmlns="http://www.w3.org/2000/svg"
   xmlns:xlink="http://www.w3.org/1999/xlink"
   xmlns:sodipodi="http://sodipodi.sourceforge.net/DTD/sodipodi-0.dtd"
   xmlns:inkscape="http://www.inkscape.org/namespaces/inkscape"
   width="210mm"
   height="297mm"
   viewBox="0 0 210 297"
   version="1.1"
   id="svg8"
   inkscape:version="1.0.1 (c497b03c, 2020-09-10)"
   sodipodi:docname="github.svg">
  <defs
     id="defs2" />
  <sodipodi:namedview
     id="base"
     pagecolor="#ffffff"
     bordercolor="#666666"
     borderopacity="1.0"
     inkscape:pageopacity="0.0"
     inkscape:pageshadow="2"
     inkscape:zoom="0.49497475"
     inkscape:cx="232.84879"
     inkscape:cy="691.90354"
     inkscape:document-units="mm"
     inkscape:current-layer="layer1"
     inkscape:document-rotation="0"
     showgrid="false"
     inkscape:window-width="1344"
     inkscape:window-height="786"
     inkscape:window-x="11"
     inkscape:window-y="25"
     inkscape:window-maximized="0" />
  <metadata
     id="metadata5">
    <rdf:RDF>
      <cc:Work
         rdf:about="">
        <dc:format>image/svg+xml</dc:format>
        <dc:type
           rdf:resource="http://purl.org/dc/dcmitype/StillImage" />
        <dc:title />
      </cc:Work>
    </rdf:RDF>
  </metadata>
  <g
     inkscape:label="Laag 1"
     inkscape:groupmode="layer"
     id="layer1">
    <rect
       style="fill:#0000ff;fill-rule:evenodd;stroke-width:0.264583"
       id="rect849"
       width="176.89287"
       height="176.89287"
       x="9.8273735"
       y="9.827383"
       rx="11.999992"
       ry="11.999992" />
    <image
       sodipodi:absref="/Users/jolijn/Documents/codecademy/portfolio_website/afbeeldingen/logos/afbeeldingen/github_PNG40.png"
       xlink:href="../afbeeldingen/github_PNG40.png"
       width="176.89287"
       height="176.89287"
       preserveAspectRatio="none"
       id="image843"
       x="9.8273735"
       y="9.827383"
       style="stroke-width:2.39316" />
    <path
       style="fill:#ffffff;stroke:none;stroke-width:1"
       d="m 76.1622,145.26099 c -8.474606,1.64399 -17.67005,0.83692 -23.73836,-6.0807 -2.23283,-2.54504 -3.219561,-5.62187 -4.87959,-8.51297 -1.071528,-1.86621 -2.386837,-3.62962 -3.996673,-5.06687 -0.731342,-0.65229 -1.601212,-1.1299 -2.321719,-1.79767 -0.65583,-0.60807 -1.924042,-1.73024 -0.872414,-2.57269 0.735322,-0.58927 1.856049,-0.62797 2.751901,-0.62355 2.600435,0.0122 5.274061,1.26036 7.296831,2.81923 2.587058,1.99447 3.841892,4.86124 6.08235,7.131 3.51265,3.55775 8.926678,5.09893 13.818097,4.76394 1.426641,-0.0973 2.806185,-0.18242 4.201206,-0.54947 0.43383,-0.11498 1.151794,-0.22443 1.481146,-0.54837 0.47949,-0.47208 0.271531,-2.65118 0.289441,-3.33443 0.05815,-2.23106 0.699722,-4.26865 1.546154,-6.30181 -1.904694,-0.64455 -4.020775,-0.83139 -5.970134,-1.37313 -4.238243,-1.17855 -8.349565,-2.76284 -12.161385,-4.97555 -2.739075,-1.58972 -5.417012,-3.53233 -7.624193,-5.81314 -8.378641,-8.65825 -10.711969,-20.873806 -7.977316,-32.393069 0.910335,-3.834374 2.530121,-7.568804 4.738629,-10.834689 0.726698,-1.074513 1.519178,-2.112211 2.364283,-3.095625 0.3822,-0.444664 1.095299,-0.994359 1.293308,-1.547812 0.157214,-0.439469 -0.371364,-1.058151 -0.561082,-1.437255 -0.526919,-1.053176 -0.918626,-2.164174 -1.165503,-3.316741 -0.898836,-4.19612 -0.84411,-8.650835 0.645881,-12.714175 0.430291,-1.173242 1.149029,-3.180866 2.215583,-3.913423 0.959533,-0.658926 3.332993,0.02554 4.41204,0.184521 4.740839,0.698395 9.275598,2.884459 13.045849,5.79092 0.914204,0.704807 1.82078,1.454059 2.653282,2.254057 0.33864,0.325373 0.743393,1.009727 1.220561,1.121943 0.660474,0.155224 1.885567,-0.544277 2.538523,-0.730567 1.922273,-0.548589 3.885342,-0.92703 5.859577,-1.233275 5.653827,-0.876836 11.460668,-0.817245 17.136497,-0.249309 2.40607,0.240685 4.84775,0.680375 7.18627,1.295188 0.70713,0.185958 2.17711,0.985404 2.87285,0.747704 0.44378,-0.151686 0.76705,-0.7152 1.1089,-1.019677 1.00641,-0.896183 2.00088,-1.79491 3.09397,-2.588495 3.60585,-2.617904 7.68268,-4.419005 12.05082,-5.285891 1.34107,-0.266224 3.40409,-0.782419 4.74958,-0.429186 1.13432,0.297732 1.97346,2.742281 2.37036,3.723816 1.64179,4.066214 1.78109,8.785052 0.92869,13.045849 -0.21006,1.048643 -0.4555,2.116191 -0.89663,3.095625 -0.17799,0.395798 -0.64897,0.983524 -0.49198,1.437255 0.23217,0.667549 1.11553,1.331671 1.5644,1.879486 0.93753,1.146598 1.75345,2.391592 2.53509,3.648416 2.15257,3.462678 3.50801,7.500368 4.22995,11.498036 1.38861,7.703795 0.86125,15.747999 -2.53178,22.885513 -4.37036,9.19445 -13.52567,15.15817 -22.96069,18.16911 -2.71232,0.86567 -5.66101,1.83748 -8.51297,2.06301 0.32095,1.40299 1.06125,2.61691 1.27949,4.09065 0.39922,2.69762 0.26832,5.45936 0.26832,8.1813 v 12.3825 c 0,3.57213 -0.78772,8.01214 2.32172,10.57709 3.13289,2.58484 7.86897,-0.45771 10.94525,-1.79657 10.1249,-4.40463 19.26253,-11.68709 26.13592,-20.27856 5.17301,-6.46543 9.2515,-13.73131 11.96901,-21.55882 7.47594,-21.536814 3.98562,-46.026416 -9.10777,-64.676453 -5.48257,-7.80993 -12.52733,-14.449162 -20.59475,-19.533505 -7.44166,-4.689541 -15.70411,-7.908217 -24.32277,-9.631706 -7.878256,-1.575442 -16.155294,-1.814335 -24.101654,-0.638252 -8.083672,1.19657 -16.118367,3.605851 -23.327747,7.504901 -6.809823,3.68291 -13.099249,8.291079 -18.458881,13.896151 -18.024389,18.849925 -24.299387,46.486672 -16.585255,71.309934 4.79236,15.42064 15.351758,29.69147 29.074002,38.29952 4.394461,2.75732 8.884665,5.1111 13.709197,7.02928 3.080589,1.22499 6.082683,1.81979 8.171345,-1.43725 1.071529,-1.67053 1.004973,-3.51575 1.004973,-5.41735 z"
       id="path847" />
    <path
       style="fill:#ffc100;stroke:none;stroke-width:0.999999;fill-opacity:1"
       d="m 62.048373,211.62495 c -0.936765,0.18173 -1.953209,0.0925 -2.623987,-0.67215 -0.246812,-0.28132 -0.355883,-0.62143 -0.53938,-0.941 -0.118444,-0.20629 -0.263836,-0.40121 -0.441784,-0.56008 -0.08084,-0.0721 -0.176994,-0.1249 -0.256638,-0.19871 -0.07249,-0.0672 -0.212679,-0.19126 -0.09643,-0.28438 0.08128,-0.0651 0.205163,-0.0694 0.304189,-0.0689 0.287447,0.001 0.582983,0.13932 0.806576,0.31163 0.285968,0.22047 0.424675,0.53735 0.67233,0.78825 0.38828,0.39327 0.986735,0.56362 1.527423,0.52659 0.157697,-0.0108 0.310189,-0.0202 0.464392,-0.0607 0.04796,-0.0127 0.127317,-0.0248 0.163722,-0.0606 0.053,-0.0522 0.03001,-0.29305 0.03199,-0.36858 0.0064,-0.24662 0.07735,-0.47185 0.17091,-0.69659 -0.210542,-0.0712 -0.444449,-0.0919 -0.659927,-0.15178 -0.468486,-0.13027 -0.922942,-0.3054 -1.344293,-0.54999 -0.302772,-0.17572 -0.598785,-0.39045 -0.842762,-0.64257 -0.926157,-0.95706 -1.184077,-2.30734 -0.881795,-3.58066 0.100626,-0.42384 0.279674,-0.83664 0.523798,-1.19764 0.08033,-0.11878 0.167927,-0.23348 0.261342,-0.34219 0.04225,-0.0491 0.121073,-0.10991 0.14296,-0.17109 0.01738,-0.0486 -0.04105,-0.11696 -0.06202,-0.15887 -0.05824,-0.11642 -0.101544,-0.23922 -0.128833,-0.36663 -0.09935,-0.46383 -0.09331,-0.95624 0.07139,-1.40539 0.04756,-0.12969 0.127011,-0.35161 0.244906,-0.43258 0.106065,-0.0728 0.368422,0.003 0.487698,0.0204 0.524042,0.0772 1.025305,0.31884 1.44206,0.64012 0.101054,0.0779 0.201265,0.16073 0.293288,0.24916 0.03743,0.036 0.08217,0.11161 0.134918,0.12401 0.07301,0.0172 0.208427,-0.0602 0.280602,-0.0807 0.212485,-0.0606 0.429478,-0.10247 0.647706,-0.13633 0.624962,-0.0969 1.266838,-0.0903 1.894232,-0.0275 0.265961,0.0266 0.535859,0.0752 0.794354,0.14316 0.07816,0.0206 0.240654,0.10893 0.317559,0.0827 0.04905,-0.0168 0.08479,-0.079 0.122576,-0.11271 0.111246,-0.0991 0.221173,-0.1984 0.342,-0.28613 0.398583,-0.28937 0.849227,-0.48846 1.332072,-0.58429 0.148239,-0.0294 0.376281,-0.0865 0.525008,-0.0474 0.125386,0.0329 0.218142,0.30313 0.262015,0.41162 0.18148,0.44948 0.196878,0.97109 0.102655,1.44206 -0.02322,0.11592 -0.05035,0.23392 -0.09911,0.34219 -0.01967,0.0437 -0.07174,0.10872 -0.05438,0.15887 0.02566,0.0738 0.123309,0.1472 0.172926,0.20775 0.103632,0.12675 0.193822,0.26437 0.280223,0.40329 0.237941,0.38276 0.387768,0.82908 0.46757,1.27097 0.153494,0.85156 0.0952,1.74075 -0.279858,2.52972 -0.48309,1.01633 -1.495098,1.67555 -2.538025,2.00837 -0.299814,0.0957 -0.625756,0.20311 -0.941005,0.22804 0.03548,0.15509 0.117308,0.28927 0.141432,0.45217 0.04413,0.29819 0.02966,0.60347 0.02966,0.90435 v 1.36873 c 0,0.39486 -0.08707,0.88565 0.256638,1.16917 0.346303,0.28572 0.869819,-0.0506 1.209864,-0.19859 1.119185,-0.48688 2.129239,-1.29186 2.889009,-2.24155 0.571813,-0.71467 1.022641,-1.51783 1.323028,-2.38306 0.826375,-2.38064 0.440562,-5.08766 -1.006753,-7.1492 -0.606031,-0.86329 -1.384744,-1.59718 -2.276499,-2.15919 -0.822585,-0.51837 -1.735899,-0.87416 -2.688587,-1.06467 -0.870846,-0.17414 -1.785772,-0.20055 -2.664146,-0.0705 -0.893551,0.13227 -1.781688,0.39858 -2.578598,0.82958 -0.752744,0.4071 -1.447963,0.91647 -2.040406,1.53605 -1.992376,2.08363 -2.686001,5.13853 -1.833298,7.88244 0.529737,1.70457 1.696951,3.28203 3.213778,4.23355 0.485754,0.30479 0.982092,0.56497 1.515385,0.777 0.340522,0.13541 0.672367,0.20116 0.903243,-0.15887 0.118444,-0.18466 0.111088,-0.38862 0.111088,-0.59882 z"
       id="path847-9"
       inkscape:export-filename="/Users/jolijn/Documents/codecademy/portfolio_website/afbeeldingen/logos/logos/60x60/github_yellow.png"
       inkscape:export-xdpi="300"
       inkscape:export-ydpi="300" />
  </g>
</svg>
