<?xml version="1.0" encoding="UTF-8" standalone="no"?>
<svg
   xmlns:dc="http://purl.org/dc/elements/1.1/"
   xmlns:cc="http://creativecommons.org/ns#"
   xmlns:rdf="http://www.w3.org/1999/02/22-rdf-syntax-ns#"
   xmlns:svg="http://www.w3.org/2000/svg"
   xmlns="http://www.w3.org/2000/svg"
   xmlns:sodipodi="http://sodipodi.sourceforge.net/DTD/sodipodi-0.dtd"
   xmlns:inkscape="http://www.inkscape.org/namespaces/inkscape"
   width="60"
   height="60"
   viewBox="0 0 15.875 15.875"
   version="1.1"
   id="svg857"
   inkscape:version="1.0.1 (c497b03c, 2020-09-10)"
   sodipodi:docname="github_geel.svg">
  <defs
     id="defs851" />
  <sodipodi:namedview
     id="base"
     pagecolor="#ffffff"
     bordercolor="#666666"
     borderopacity="1.0"
     inkscape:pageopacity="0.0"
     inkscape:pageshadow="2"
     inkscape:zoom="2.673752"
     inkscape:cx="75.362563"
     inkscape:cy="93.240183"
     inkscape:document-units="mm"
     inkscape:current-layer="layer1"
     inkscape:document-rotation="0"
     showgrid="false"
     units="px"
     inkscape:window-width="1344"
     inkscape:window-height="781"
     inkscape:window-x="0"
     inkscape:window-y="25"
     inkscape:window-maximized="0" />
  <metadata
     id="metadata854">
    <rdf:RDF>
      <cc:Work
         rdf:about="">
        <dc:format>image/svg+xml</dc:format>
        <dc:type
           rdf:resource="http://purl.org/dc/dcmitype/StillImage" />
        <dc:title></dc:title>
      </cc:Work>
    </rdf:RDF>
  </metadata>
  <g
     inkscape:label="Laag 1"
     inkscape:groupmode="layer"
     id="layer1">
    <path
       style="fill:#ffc100;fill-opacity:1;stroke:none;stroke-width:0.999998"
       d="m 6.0804879,13.937776 c -0.936765,0.181731 -1.953209,0.0925 -2.623987,-0.67215 -0.246812,-0.28132 -0.355883,-0.621429 -0.53938,-0.941 -0.118444,-0.20629 -0.263836,-0.40121 -0.441784,-0.56008 -0.08084,-0.0721 -0.176994,-0.1249 -0.256638,-0.19871 -0.07249,-0.0672 -0.212679,-0.19126 -0.09643,-0.28438 0.08128,-0.0651 0.205163,-0.0694 0.304189,-0.0689 0.287447,0.001 0.582983,0.139321 0.806576,0.31163 0.285968,0.22047 0.424675,0.53735 0.67233,0.788251 0.38828,0.393269 0.986735,0.563619 1.527423,0.526589 0.157697,-0.0108 0.310189,-0.0202 0.464392,-0.0607 0.04796,-0.0127 0.127317,-0.0248 0.163722,-0.0606 0.053,-0.0522 0.03001,-0.29305 0.03199,-0.36858 0.0064,-0.24662 0.07735,-0.47185 0.17091,-0.69659 -0.210542,-0.0712 -0.444449,-0.0919 -0.659927,-0.15178 -0.468486,-0.13027 -0.922942,-0.3054 -1.344293,-0.54999 -0.302772,-0.17572 -0.598785,-0.39045 -0.842762,-0.64257 -0.926157,-0.9570602 -1.184077,-2.3073404 -0.881795,-3.5806604 0.100626,-0.42384 0.279674,-0.83664 0.523798,-1.19764 0.08033,-0.11878 0.167927,-0.23348 0.261342,-0.34219 0.04225,-0.0491 0.121073,-0.10991 0.14296,-0.17109 0.01738,-0.0486 -0.04105,-0.11696 -0.06202,-0.15887 -0.05824,-0.11642 -0.101544,-0.23922 -0.128833,-0.36663 -0.09935,-0.46383 -0.09331,-0.95624 0.07139,-1.40539 0.04756,-0.12969 0.127011,-0.35161 0.244906,-0.43258 0.106065,-0.0728 0.368422,0.003 0.487698,0.0204 0.524042,0.0772 1.025305,0.31884 1.44206,0.64012 0.101054,0.0779 0.201265,0.16073 0.293288,0.24916 0.03743,0.036 0.08217,0.11161 0.134918,0.12401 0.07301,0.0172 0.208427,-0.0602 0.280602,-0.0807 0.212485,-0.0606 0.429478,-0.10247 0.647706,-0.13633 0.624962,-0.0969 1.2668383,-0.0903 1.8942323,-0.0275 0.265961,0.0266 0.535859,0.0752 0.794354,0.14316 0.07816,0.0206 0.240654,0.10893 0.317559,0.0827 0.04905,-0.0168 0.08479,-0.079 0.1225748,-0.11271 0.111246,-0.0991 0.221174,-0.1984 0.342001,-0.28613 0.398582,-0.28937 0.849226,-0.48846 1.332071,-0.58429 0.148239,-0.0294 0.376281,-0.0865 0.525009,-0.0474 0.125386,0.0329 0.218141,0.30313 0.262015,0.41162 0.181479,0.44948 0.196877,0.97109 0.102654,1.44206 -0.02322,0.11592 -0.05035,0.23392 -0.09911,0.34219 -0.01967,0.0437 -0.07174,0.10872 -0.05438,0.15887 0.02566,0.0738 0.123309,0.1472 0.172926,0.20775 0.103632,0.12675 0.193822,0.26437 0.280223,0.40329 0.237941,0.38276 0.387768,0.82908 0.46757,1.27097 0.153494,0.851561 0.0952,1.7407502 -0.279858,2.5297212 -0.48309,1.0163292 -1.495098,1.6755492 -2.538024,2.0083692 -0.299815,0.0957 -0.6257558,0.20311 -0.9410048,0.22804 0.03548,0.15509 0.117308,0.28927 0.141432,0.45217 0.04413,0.29819 0.02966,0.60347 0.02966,0.90435 v 1.368731 c 0,0.394859 -0.08707,0.885649 0.2566378,1.169169 0.346302,0.28572 0.869818,-0.0506 1.209863,-0.19859 1.119186,-0.48688 2.12924,-1.29186 2.889009,-2.24155 0.571813,-0.71467 1.022641,-1.51783 1.323028,-2.38306 0.826375,-2.3806404 0.440562,-5.0876604 -1.006753,-7.1492004 -0.606031,-0.86329 -1.384744,-1.59718 -2.276499,-2.15919 C 11.319444,0.88499562 10.40613,0.52920562 9.4534432,0.33869562 c -0.870846,-0.17414 -1.785772,-0.20055 -2.6641463,-0.0705 -0.893551,0.13227 -1.781688,0.39858 -2.578598,0.82957998 -0.752744,0.4071 -1.447963,0.91647 -2.040406,1.53605 -1.99237598,2.08363 -2.68600098,5.13853 -1.83329798,7.8824404 0.529737,1.70457 1.69695098,3.28203 3.21377798,4.233551 0.485754,0.30479 0.982092,0.564969 1.515385,0.776999 0.340522,0.13541 0.672367,0.20116 0.903243,-0.15887 0.118444,-0.18466 0.111088,-0.38862 0.111088,-0.59882 z"
       id="path847-9"
       inkscape:export-filename="/Users/jolijn/Documents/codecademy/portfolio_website/afbeeldingen/logos/logos/60x60/github_yellow.png"
       inkscape:export-xdpi="300"
       inkscape:export-ydpi="300" />
  </g>
</svg>
