<?xml version="1.0" encoding="UTF-8" standalone="no"?>
<svg
   xmlns:dc="http://purl.org/dc/elements/1.1/"
   xmlns:cc="http://creativecommons.org/ns#"
   xmlns:rdf="http://www.w3.org/1999/02/22-rdf-syntax-ns#"
   xmlns:svg="http://www.w3.org/2000/svg"
   xmlns="http://www.w3.org/2000/svg"
   xmlns:xlink="http://www.w3.org/1999/xlink"
   xmlns:sodipodi="http://sodipodi.sourceforge.net/DTD/sodipodi-0.dtd"
   xmlns:inkscape="http://www.inkscape.org/namespaces/inkscape"
   width="210mm"
   height="297mm"
   viewBox="0 0 210 297"
   version="1.1"
   id="svg8"
   inkscape:version="1.0.1 (c497b03c, 2020-09-10)"
   sodipodi:docname="html_css_js.svg">
  <defs
     id="defs2">
    <clipPath
       clipPathUnits="userSpaceOnUse"
       id="clipPath869">
      <rect
         style="fill:#0000ff;fill-rule:evenodd;stroke-width:0.264583"
         id="rect871"
         width="43.515003"
         height="60.287201"
         x="6.3778539"
         y="11.528273" />
    </clipPath>
  </defs>
  <sodipodi:namedview
     id="base"
     pagecolor="#ffffff"
     bordercolor="#666666"
     borderopacity="1.0"
     inkscape:pageopacity="0.0"
     inkscape:pageshadow="2"
     inkscape:zoom="5.6"
     inkscape:cx="122.49211"
     inkscape:cy="303.16507"
     inkscape:document-units="mm"
     inkscape:current-layer="layer1"
     inkscape:document-rotation="0"
     showgrid="false"
     inkscape:window-width="1344"
     inkscape:window-height="786"
     inkscape:window-x="173"
     inkscape:window-y="25"
     inkscape:window-maximized="0" />
  <metadata
     id="metadata5">
    <rdf:RDF>
      <cc:Work
         rdf:about="">
        <dc:format>image/svg+xml</dc:format>
        <dc:type
           rdf:resource="http://purl.org/dc/dcmitype/StillImage" />
        <dc:title />
      </cc:Work>
    </rdf:RDF>
  </metadata>
  <g
     inkscape:label="Laag 1"
     inkscape:groupmode="layer"
     id="layer1">
    <image
       sodipodi:absref="/Users/jolijn/Desktop/logos/afbeeldingen/html5-logo-best-web-design-psd-html-cms-development-ecommerce-6.png"
       xlink:href="../afbeeldingen/html5-logo-best-web-design-psd-html-cms-development-ecommerce-6.png"
       width="123.29583"
       height="55.5625"
       preserveAspectRatio="none"
       id="image843-6"
       x="4.8574605"
       y="4.1861124" />
    <g
       id="g866">
      <path
         id="path934"
         style="fill:#ff6600;stroke:none;stroke-width:0.26458300000000001px;stroke-linecap:butt;stroke-linejoin:miter;stroke-opacity:1"
         d="m 4.8110759,17.172078 3.2737019,34.410818 13.7645342,4.009059 13.764536,-3.941879 3.073196,-34.411335 z m 6.4140781,7.082772 h 21.248317 l -0.468191,4.342888 -16.303396,-0.133327 0.467671,4.342887 15.435233,-0.06666 -1.203026,13.029179 -8.418608,2.4722 -8.820133,-2.538862 -0.734839,-6.414595 h 4.342887 l 0.200505,3.207038 4.944401,1.470194 4.744412,-1.470194 0.199988,-5.478735 -14.69936,-0.06666 z" />
      <path
         id="rect875"
         style="fill:#ff6600;fill-rule:evenodd;stroke-width:0.999999"
         d="M 45.835938 29.419922 L 45.835938 37.628906 L 38.386719 37.628906 L 38.386719 29.546875 L 30.052734 29.546875 L 30.052734 54.294922 L 38.386719 54.294922 L 38.386719 45.962891 L 45.835938 45.962891 L 45.835938 54.421875 L 54.800781 54.421875 L 54.800781 29.419922 L 45.835938 29.419922 z "
         transform="scale(0.26458333)" />
      <path
         id="rect904"
         style="fill:#ff6600;fill-rule:evenodd;stroke-width:0.999999"
         d="M 57.326172 29.673828 L 57.326172 38.132812 L 64.523438 38.132812 L 64.523438 54.042969 L 73.363281 54.042969 L 73.363281 38.132812 L 80.560547 38.132812 L 80.560547 29.673828 L 57.326172 29.673828 z "
         transform="scale(0.26458333)" />
      <path
         id="rect913"
         style="fill:#ff6600;fill-rule:evenodd;stroke-width:0.999999"
         d="M 102.91016 29.673828 L 96.595703 37.880859 L 91.544922 29.798828 L 83.210938 29.798828 L 83.210938 54.169922 L 91.544922 54.169922 L 91.544922 42.873047 L 96.847656 50.886719 L 102.91016 42.439453 L 102.91016 54.169922 L 111.11719 54.169922 L 111.11719 29.673828 L 102.91016 29.673828 z "
         transform="scale(0.26458333)" />
      <path
         id="rect923"
         style="fill:#ff6600;fill-rule:evenodd;stroke-width:0.999999"
         d="M 114.73242 29.552734 L 114.73242 54.017578 L 123.39258 54.017578 L 123.39258 53.992188 L 135 53.992188 L 135 45.714844 L 123.39258 45.714844 L 123.39258 29.552734 L 114.73242 29.552734 z "
         transform="scale(0.26458333)" />
    </g>
    <g
       id="g902">
      <path
         style="fill:#0000ff;stroke:none;stroke-width:0.26458300000000001px;stroke-linecap:butt;stroke-linejoin:miter;stroke-opacity:1"
         d="m 56.696427,7.7485117 5.24442,0.1889882 -0.09449,2.2678571 -3.023809,-0.09449 0.04725,2.031622 h 3.071056 v 2.173363 l -5.24442,-0.09449 z"
         id="path937"
         sodipodi:nodetypes="ccccccccc" />
      <path
         style="fill:#0000ff;stroke:none;stroke-width:0.26458300000000001px;stroke-linecap:butt;stroke-linejoin:miter;stroke-opacity:1"
         d="m 64.066964,7.8430058 h 5.291667 V 10.110863 H 67.27976 l 2.126117,2.126116 v 2.078869 h -5.291666 l -0.04725,-2.173363 h 2.173362 l -2.173362,-1.842634 z"
         id="path939" />
      <path
         style="fill:#0000ff;stroke:none;stroke-width:0.26458300000000001px;stroke-linecap:butt;stroke-linejoin:miter;stroke-opacity:1"
         d="m 71.484746,7.7957589 h 5.291666 v 2.3151041 h -2.031621 l 2.078868,2.078869 v 2.031622 h -5.291667 v -2.078869 h 2.220611 l -2.126115,-2.126116 z"
         id="path941" />
      <path
         id="path943"
         style="fill:#0000ff;stroke:none;stroke-width:0.999999px;stroke-linecap:butt;stroke-linejoin:miter;stroke-opacity:1"
         d="M 188.14062 64.902344 L 200.26367 195.96875 L 252.28516 210.36523 L 304.56055 195.7168 L 316.42969 64.902344 L 188.14062 64.902344 z M 211.87891 91.671875 L 292.1875 91.671875 L 290.16602 107.83398 L 253.29492 123.49023 L 289.4082 123.49023 L 285.36719 172.73633 L 252.79102 183.3418 L 218.95117 172.73633 L 217.18359 147.98828 L 233.84961 147.48242 L 234.60742 161.11914 L 252.28516 165.91797 L 270.97266 160.10938 L 270.97266 140.1582 L 216.42578 139.90625 L 215.16211 123.74414 L 253.80078 107.83398 L 213.64648 107.83398 L 211.87891 91.671875 z "
         transform="scale(0.26458333)" />
    </g>
    <g
       id="g934">
      <path
         style="fill:#ffff00;stroke:none;stroke-width:0.26458300000000001px;stroke-linecap:butt;stroke-linejoin:miter;stroke-opacity:1"
         d="m 107.94348,7.8844509 h 2.20497 l -0.0668,6.4144691 h -5.21176 l -0.0668,-2.204974 h 3.00678 z"
         id="path948" />
      <path
         style="fill:#ffff00;stroke:none;stroke-width:0.26458300000000001px;stroke-linecap:butt;stroke-linejoin:miter;stroke-opacity:1"
         d="m 112.32002,7.9178596 5.27857,-0.033409 -0.10023,2.4722434 -2.03793,-0.133635 2.03793,2.03793 0.0668,2.004522 -5.27857,-0.03341 v -2.138156 l 1.9043,0.03341 -1.93771,-1.971113 z"
         id="path950" />
      <path
         id="path954"
         style="fill:#ffff00;stroke:none;stroke-width:0.99999899999999997px;stroke-linecap:butt;stroke-linejoin:miter;stroke-opacity:1"
         d="M 356.42773 64.285156 L 368.57227 195 L 420.71484 209.64258 L 472.5 195.71484 L 484.64258 65 L 356.42773 64.285156 z M 388.92773 91.964844 L 453.57227 91.964844 L 458.03516 117.67773 L 440.71484 117.67773 L 440.89258 108.21484 L 402.14258 108.39258 L 402.14258 123.92773 L 457.32227 123.92773 L 453.57227 173.21484 L 420.17969 183.21484 L 386.96484 172.85742 L 384.82227 147.67773 L 401.60742 147.85742 L 402.5 160.71484 L 420.71484 166.07227 L 438.39258 160.71484 L 438.92969 140 L 384.46484 140.17773 L 388.92773 91.964844 z "
         transform="scale(0.26458333)" />
    </g>
  </g>
</svg>
