<?xml version="1.0" encoding="UTF-8" standalone="no"?>
<svg
   xmlns:dc="http://purl.org/dc/elements/1.1/"
   xmlns:cc="http://creativecommons.org/ns#"
   xmlns:rdf="http://www.w3.org/1999/02/22-rdf-syntax-ns#"
   xmlns:svg="http://www.w3.org/2000/svg"
   xmlns="http://www.w3.org/2000/svg"
   xmlns:sodipodi="http://sodipodi.sourceforge.net/DTD/sodipodi-0.dtd"
   xmlns:inkscape="http://www.inkscape.org/namespaces/inkscape"
   width="210mm"
   height="297mm"
   viewBox="0 0 210 297"
   version="1.1"
   id="svg2119"
   inkscape:version="1.0.1 (c497b03c, 2020-09-10)"
   sodipodi:docname="illustrator.svg">
  <defs
     id="defs2113" />
  <sodipodi:namedview
     id="base"
     pagecolor="#ffffff"
     bordercolor="#666666"
     borderopacity="1.0"
     inkscape:pageopacity="0.0"
     inkscape:pageshadow="2"
     inkscape:zoom="0.7"
     inkscape:cx="184.68235"
     inkscape:cy="329.98376"
     inkscape:document-units="mm"
     inkscape:current-layer="layer1"
     inkscape:document-rotation="0"
     showgrid="false"
     inkscape:window-width="1344"
     inkscape:window-height="791"
     inkscape:window-x="31"
     inkscape:window-y="25"
     inkscape:window-maximized="0" />
  <metadata
     id="metadata2116">
    <rdf:RDF>
      <cc:Work
         rdf:about="">
        <dc:format>image/svg+xml</dc:format>
        <dc:type
           rdf:resource="http://purl.org/dc/dcmitype/StillImage" />
        <dc:title />
      </cc:Work>
    </rdf:RDF>
  </metadata>
  <g
     inkscape:label="Laag 1"
     inkscape:groupmode="layer"
     id="layer1">
    <path
       id="rect2722"
       style="fill:#ff6600;fill-rule:evenodd;stroke-width:0.264583"
       d="m 74.210978,10.833964 c -0.110801,0 -0.199988,0.08919 -0.199988,0.199988 v 56.244112 c 0,0.1108 0.08919,0.199988 0.199988,0.199988 h 57.696242 c 0.11079,0 0.19998,-0.08919 0.19998,-0.199988 V 11.033952 c 0,-0.110801 -0.0892,-0.199988 -0.19998,-0.199988 z m 40.067842,12.175484 a 2.5395276,2.5159038 0 0 1 2.53938,2.515609 2.5395276,2.5159038 0 0 1 -2.53938,2.516125 2.5395276,2.5159038 0 0 1 -2.53938,-2.516125 2.5395276,2.5159038 0 0 1 2.53938,-2.515609 z m -13.73715,0.708484 c 0.23175,0.0021 0.23616,0.313159 0.23616,0.313159 0,0 7.57726,25.689416 7.68584,26.046472 0.10858,0.35706 -0.16278,0.331763 -0.16278,0.331763 0,0 -3.97352,0.01303 -4.16771,0.0026 -0.19418,-0.01044 -0.22117,-0.202571 -0.22117,-0.202571 l -2.01177,-7.297229 -7.736992,-0.0031 c 0,0 -1.912784,7.172624 -1.939933,7.333403 -0.02714,0.160787 -0.192238,0.158647 -0.192238,0.158647 0,0 -3.213483,-0.01681 -3.651972,0.01033 -0.438489,0.02715 -0.290422,-0.337963 -0.290422,-0.337963 l 5.838404,-20.448378 c 0,0 1.139772,-4.10516 1.160653,-4.209562 0.02088,-0.104403 0.106838,-1.302858 0.115239,-1.499134 0.0084,-0.196276 0.156578,-0.19637 0.156578,-0.19637 h 0.145727 c 0,0 4.804616,-0.0042 5.036386,-0.0021 z m -2.551266,3.850929 -2.787425,11.410156 h 5.716441 z m 14.232216,3.141927 h 4.08864 c 0.1108,0 0.19999,0.08919 0.19999,0.199985 v 19.396234 c 0,0.110799 -0.0892,0.199987 -0.19999,0.199987 h -4.08864 c -0.1108,0 -0.19999,-0.08919 -0.19999,-0.199987 V 30.910773 c 0,-0.1108 0.0892,-0.199985 0.19999,-0.199985 z" />
  </g>
</svg>
