<?xml version="1.0" encoding="UTF-8" standalone="no"?>
<svg
   xmlns:dc="http://purl.org/dc/elements/1.1/"
   xmlns:cc="http://creativecommons.org/ns#"
   xmlns:rdf="http://www.w3.org/1999/02/22-rdf-syntax-ns#"
   xmlns:svg="http://www.w3.org/2000/svg"
   xmlns="http://www.w3.org/2000/svg"
   xmlns:sodipodi="http://sodipodi.sourceforge.net/DTD/sodipodi-0.dtd"
   xmlns:inkscape="http://www.inkscape.org/namespaces/inkscape"
   width="210mm"
   height="297mm"
   viewBox="0 0 210 297"
   version="1.1"
   id="svg1503"
   inkscape:version="1.0.1 (c497b03c, 2020-09-10)"
   sodipodi:docname="indesign.svg">
  <defs
     id="defs1497" />
  <sodipodi:namedview
     id="base"
     pagecolor="#ffffff"
     bordercolor="#666666"
     borderopacity="1.0"
     inkscape:pageopacity="0.0"
     inkscape:pageshadow="2"
     inkscape:zoom="2.8"
     inkscape:cx="85.466102"
     inkscape:cy="71.404139"
     inkscape:document-units="mm"
     inkscape:current-layer="layer1"
     inkscape:document-rotation="0"
     showgrid="false"
     inkscape:window-width="1344"
     inkscape:window-height="792"
     inkscape:window-x="40"
     inkscape:window-y="25"
     inkscape:window-maximized="0" />
  <metadata
     id="metadata1500">
    <rdf:RDF>
      <cc:Work
         rdf:about="">
        <dc:format>image/svg+xml</dc:format>
        <dc:type
           rdf:resource="http://purl.org/dc/dcmitype/StillImage" />
        <dc:title />
      </cc:Work>
    </rdf:RDF>
  </metadata>
  <g
     inkscape:label="Laag 1"
     inkscape:groupmode="layer"
     id="layer1">
    <path
       id="rect2107"
       style="fill:#800080;fill-rule:evenodd;stroke-width:0.264583"
       d="M 7.7711019,3.4633546 V 32.890499 H 36.141464 V 3.4633546 Z M 15.544271,10.11101 h 2.50424 v 14.552082 h -2.50424 z m 7.21868,2.122351 c 0.22461,-0.0048 0.450068,-0.0041 0.671794,0.0036 1.773811,0.06182 3.000555,0.372014 4.0628,1.653646 1.301668,1.41155 1.391544,2.672985 1.512054,3.96875 0.12051,1.295765 -0.222353,2.5191 -0.708485,3.685045 -0.653439,1.354035 -2.471349,2.78398 -4.630208,3.024106 -2.158859,0.240125 -3.921724,-0.09457 -3.921724,-0.09457 l -0.09457,-11.90625 c 0,0 1.536072,-0.300624 3.108337,-0.334346 z m -0.136942,2.011763 c -0.477637,0.0094 -0.797884,0.0708 -0.797884,0.0708 l 0.04703,8.409823 c 0,0 4.753294,1.169723 4.913912,-4.110344 0.120462,-3.96005 -2.730144,-4.398563 -4.163053,-4.370276 z" />
  </g>
</svg>
