<?xml version="1.0" encoding="UTF-8" standalone="no"?>
<svg
   xmlns:dc="http://purl.org/dc/elements/1.1/"
   xmlns:cc="http://creativecommons.org/ns#"
   xmlns:rdf="http://www.w3.org/1999/02/22-rdf-syntax-ns#"
   xmlns:svg="http://www.w3.org/2000/svg"
   xmlns="http://www.w3.org/2000/svg"
   xmlns:sodipodi="http://sodipodi.sourceforge.net/DTD/sodipodi-0.dtd"
   xmlns:inkscape="http://www.inkscape.org/namespaces/inkscape"
   width="210mm"
   height="297mm"
   viewBox="0 0 210 297"
   version="1.1"
   id="svg8"
   inkscape:version="1.0.1 (c497b03c, 2020-09-10)"
   sodipodi:docname="inkscape.svg">
  <defs
     id="defs2" />
  <sodipodi:namedview
     id="base"
     pagecolor="#ffffff"
     bordercolor="#666666"
     borderopacity="1.0"
     inkscape:pageopacity="0.0"
     inkscape:pageshadow="2"
     inkscape:zoom="0.49497475"
     inkscape:cx="260.00333"
     inkscape:cy="448.29225"
     inkscape:document-units="mm"
     inkscape:current-layer="svg8"
     inkscape:document-rotation="0"
     showgrid="false"
     inkscape:window-width="1344"
     inkscape:window-height="792"
     inkscape:window-x="52"
     inkscape:window-y="30"
     inkscape:window-maximized="0" />
  <metadata
     id="metadata5">
    <rdf:RDF>
      <cc:Work
         rdf:about="">
        <dc:format>image/svg+xml</dc:format>
        <dc:type
           rdf:resource="http://purl.org/dc/dcmitype/StillImage" />
        <dc:title />
      </cc:Work>
    </rdf:RDF>
  </metadata>
  <g
     inkscape:label="Laag 1"
     inkscape:groupmode="layer"
     id="layer1" />
  <g
     inkscape:groupmode="layer"
     id="layer2"
     inkscape:label="Laag 2" />
  <g
     id="g884">
    <path
       id="path848"
       style="fill:#800000;stroke:none;stroke-width:0.999999px;stroke-linecap:butt;stroke-linejoin:miter;stroke-opacity:1"
       d="M 242.93555 21.533203 C 230.14871 21.577965 220.71875 30.052734 220.71875 30.052734 L 171.47266 79.296875 L 114.14648 139.40039 C 114.14648 139.40039 93.186811 161.87621 117.93555 171.47266 C 142.68429 181.0691 156.82617 182.08008 156.82617 182.08008 C 156.82617 182.08008 175.76576 185.11038 161.37109 193.94922 C 146.97642 202.78805 122.22786 207.08109 154.55273 218.44531 C 186.87762 229.80952 195.96875 232.33594 195.96875 232.33594 C 195.96875 232.33594 213.89955 238.14419 198.24219 251.78125 C 182.58482 265.41831 199.75781 268.70117 199.75781 268.70117 L 212.63672 271.22656 C 212.63672 271.22656 224.25352 275.0139 225.26367 283.34766 C 226.27382 291.68142 234.86058 295.72226 244.45703 294.20703 C 254.05348 292.6918 279.30664 282.08594 279.30664 282.08594 C 279.30664 282.08594 287.64001 277.28728 277.79102 272.99414 C 267.94203 268.70099 268.70083 263.39646 282.33789 255.82031 C 295.97495 248.24417 307.5918 246.73047 307.5918 246.73047 C 312.72198 245.94587 316.77015 243.807 319.20898 239.6582 C 319.20898 239.6582 325.01561 231.07146 322.49023 228.04102 C 319.96485 225.01056 302.03516 214.15234 302.03516 214.15234 C 302.03516 214.15234 292.94341 208.59725 303.04492 204.55664 C 313.14645 200.51603 367.69531 179.55469 367.69531 179.55469 C 367.69531 179.55469 396.23273 164.40149 375.01953 143.69336 C 356.57915 125.69203 319.34676 86.513033 309.45312 76.078125 C 308.58792 75.042441 282.74045 44.176695 261.88281 28.285156 C 255.25368 23.234394 248.74775 21.512857 242.93555 21.533203 z M 242.70508 32.066406 C 252.03797 32.042615 258.3457 38.132812 258.3457 38.132812 L 302.28906 82.074219 C 302.28906 82.074219 304.81424 90.913872 301.53125 92.681641 C 298.24825 94.449409 281.83203 77.277344 281.83203 77.277344 L 278.04492 101.26758 L 261.62891 92.175781 L 234.10352 109.34961 L 225.01172 73.740234 L 211.12109 98.490234 L 185.86719 98.490234 C 185.86719 98.490234 176.52385 92.428478 183.08984 82.832031 C 183.08984 82.832031 208.34381 53.790373 226.02148 38.890625 C 232.09818 33.768836 237.81642 32.078868 242.70508 32.066406 z "
       transform="scale(0.26458333)" />
    <path
       style="fill:#800000;stroke:none;stroke-width:0.26458300000000001px;stroke-linecap:butt;stroke-linejoin:miter;stroke-opacity:1"
       d="m 50.447122,65.447624 c 0,0 -2.437774,-1.868106 -5.412208,-0.734989 -2.104748,0.801808 -2.906468,1.675213 -2.505652,3.040189 0.400816,1.364976 2.572471,2.204974 4.376539,1.403165 3.292209,-1.463207 3.541321,-3.708365 3.541321,-3.708365 z"
       id="path860"
       sodipodi:nodetypes="cszsc" />
    <path
       style="fill:#800000;stroke:none;stroke-width:0.26458300000000001px;stroke-linecap:butt;stroke-linejoin:miter;stroke-opacity:1"
       d="m 87.664405,64.54559 c 0,0 -2.710555,4.352473 1.837476,4.009044 C 92.283138,68.344617 90.87765,66.405325 90.3371,65.681487 89.796549,64.95765 87.664405,64.54559 87.664405,64.54559 Z"
       id="path862"
       sodipodi:nodetypes="cszc" />
    <path
       style="fill:#800000;stroke:none;stroke-width:0.26458300000000001px;stroke-linecap:butt;stroke-linejoin:miter;stroke-opacity:1"
       d="m 89.06757,61.605625 c 0,0 1.069078,1.102487 4.944486,1.035669 3.875407,-0.06682 4.710625,-0.734991 4.710625,-0.734991 0,0 0.768401,-0.734992 -0.501131,-1.904294 -1.269529,-1.169305 -3.407685,-1.737251 -4.242903,-1.703845 -0.835218,0.03341 -3.507912,0.367498 -4.911077,3.307461 z"
       id="path864" />
  </g>
</svg>
