<?xml version="1.0" encoding="UTF-8" standalone="no"?>
<svg
   xmlns:dc="http://purl.org/dc/elements/1.1/"
   xmlns:cc="http://creativecommons.org/ns#"
   xmlns:rdf="http://www.w3.org/1999/02/22-rdf-syntax-ns#"
   xmlns:svg="http://www.w3.org/2000/svg"
   xmlns="http://www.w3.org/2000/svg"
   xmlns:sodipodi="http://sodipodi.sourceforge.net/DTD/sodipodi-0.dtd"
   xmlns:inkscape="http://www.inkscape.org/namespaces/inkscape"
   width="210mm"
   height="297mm"
   viewBox="0 0 210 297"
   version="1.1"
   id="svg8"
   inkscape:version="1.0.1 (c497b03c, 2020-09-10)"
   sodipodi:docname="markdown.svg">
  <defs
     id="defs2" />
  <sodipodi:namedview
     id="base"
     pagecolor="#ffffff"
     bordercolor="#666666"
     borderopacity="1.0"
     inkscape:pageopacity="0.0"
     inkscape:pageshadow="2"
     inkscape:zoom="0.35"
     inkscape:cx="400"
     inkscape:cy="536.14103"
     inkscape:document-units="mm"
     inkscape:current-layer="layer1"
     inkscape:document-rotation="0"
     showgrid="false"
     inkscape:window-width="1344"
     inkscape:window-height="785"
     inkscape:window-x="50"
     inkscape:window-y="25"
     inkscape:window-maximized="0" />
  <metadata
     id="metadata5">
    <rdf:RDF>
      <cc:Work
         rdf:about="">
        <dc:format>image/svg+xml</dc:format>
        <dc:type
           rdf:resource="http://purl.org/dc/dcmitype/StillImage" />
        <dc:title />
      </cc:Work>
    </rdf:RDF>
  </metadata>
  <g
     inkscape:label="Laag 1"
     inkscape:groupmode="layer"
     id="layer1">
    <path
       style="fill:#010101;stroke:none;stroke-width:1"
       d="m 10.885719,9.1670333 c -0.505446,0.06656 -0.9803064,0.14245 -1.4463893,0.364075 -0.3701944,0.176029 -0.7139023,0.372745 -1.0230556,0.6458057 -1.7138092,1.51372 -1.4816666,3.603628 -1.4816666,5.677926 v 20.284721 3.386667 c 0,1.836667 0.029259,3.500084 1.5522222,4.787335 1.3255519,1.120281 3.0035143,0.962942 4.6213883,0.962942 h 9.066389 27.058055 8.5725 c 1.443567,0 3.063169,0.202848 4.480278,-0.09419 0.428272,-0.08961 0.857955,-0.255764 1.234722,-0.477309 0.327378,-0.192616 0.64523,-0.424815 0.906992,-0.701639 1.479197,-1.562629 1.209675,-3.623275 1.209675,-5.606027 V 17.724562 14.761229 c 0,-0.737658 0.05045,-1.494085 -0.08678,-2.2225 C 65.35249,11.491134 64.69844,10.539118 63.837662,9.9249883 62.451598,8.9362873 60.718048,9.1520623 59.11044,9.1520623 H 49.726551 23.620996 15.119052 c -1.376504,0 -2.86953,-0.164624 -4.233333,0.01497 m 27.093332,8.4516957 v 19.19111 H 32.334607 V 25.838451 c -1.500223,1.629939 -2.806806,3.490912 -4.191,5.221111 l -1.044222,1.305277 c -0.08594,0.107456 -0.253718,0.416031 -0.409222,0.416031 -0.155505,0 -0.323286,-0.308575 -0.409223,-0.416031 l -1.044222,-1.305277 c -1.384194,-1.730199 -2.690777,-3.591208 -4.191,-5.221111 v 10.971388 h -5.644444 v -19.19111 h 4.198055 c 0.363467,0 1.224527,-0.156669 1.510912,0.08177 0.522641,0.435116 0.935496,1.15062 1.3607,1.682115 l 2.793999,3.492499 1.016,1.27 c 0.0846,0.105798 0.256964,0.421358 0.409223,0.421358 0.152259,0 0.324626,-0.31556 0.409222,-0.421358 l 1.016,-1.27 2.794,-3.492499 c 0.425203,-0.531495 0.838059,-1.247035 1.360699,-1.682115 0.286385,-0.238443 1.147445,-0.08177 1.510912,-0.08177 h 4.198055 m 15.24,0 v 9.595555 h 5.644444 l -1.824919,2.151944 -4.353278,5.08 -2.253191,2.645833 h -0.07056 l -2.253192,-2.645833 -4.353277,-5.08 -1.82492,-2.151944 h 5.644445 v -9.595555 z"
       id="path847" />
  </g>
</svg>
