<?xml version="1.0" encoding="UTF-8" standalone="no"?>
<svg
   xmlns:dc="http://purl.org/dc/elements/1.1/"
   xmlns:cc="http://creativecommons.org/ns#"
   xmlns:rdf="http://www.w3.org/1999/02/22-rdf-syntax-ns#"
   xmlns:svg="http://www.w3.org/2000/svg"
   xmlns="http://www.w3.org/2000/svg"
   xmlns:xlink="http://www.w3.org/1999/xlink"
   xmlns:sodipodi="http://sodipodi.sourceforge.net/DTD/sodipodi-0.dtd"
   xmlns:inkscape="http://www.inkscape.org/namespaces/inkscape"
   width="210mm"
   height="297mm"
   viewBox="0 0 210 297"
   version="1.1"
   id="svg8"
   inkscape:version="1.0.1 (c497b03c, 2020-09-10)"
   sodipodi:docname="node.svg">
  <defs
     id="defs2" />
  <sodipodi:namedview
     id="base"
     pagecolor="#ffffff"
     bordercolor="#666666"
     borderopacity="1.0"
     inkscape:pageopacity="0.0"
     inkscape:pageshadow="2"
     inkscape:zoom="0.24748737"
     inkscape:cx="400"
     inkscape:cy="560"
     inkscape:document-units="mm"
     inkscape:current-layer="layer1"
     inkscape:document-rotation="0"
     showgrid="false"
     inkscape:window-width="1344"
     inkscape:window-height="785"
     inkscape:window-x="96"
     inkscape:window-y="45"
     inkscape:window-maximized="0" />
  <metadata
     id="metadata5">
    <rdf:RDF>
      <cc:Work
         rdf:about="">
        <dc:format>image/svg+xml</dc:format>
        <dc:type
           rdf:resource="http://purl.org/dc/dcmitype/StillImage" />
        <dc:title></dc:title>
      </cc:Work>
    </rdf:RDF>
  </metadata>
  <g
     inkscape:label="Laag 1"
     inkscape:groupmode="layer"
     id="layer1">
    <image
       sodipodi:absref="/Users/jolijn/Desktop/logos/afbeeldingen/http___pluspng.com_img-png_nodejs-png-nodejs-icon-png-50-px-1600.png"
       xlink:href="../afbeeldingen/http___pluspng.com_img-png_nodejs-png-nodejs-icon-png-50-px-1600.png"
       style="stroke-width:2.23743"
       y="9.5196466"
       x="10.405302"
       id="image843"
       preserveAspectRatio="none"
       height="189.20525"
       width="189.20525" />
    <path
       style="fill:#000000;stroke-width:0.999999"
       d="m 78.637445,131.79555 c -0.642835,-0.20858 -19.94719,-11.01178 -20.308748,-11.3653 -0.212424,-0.2077 -0.441835,-0.56957 -0.509803,-0.80416 -0.0832,-0.28715 -0.112074,-4.08454 -0.08837,-11.62087 l 0.03521,-11.194355 0.35476,-0.501384 c 0.322611,-0.455951 1.26562,-1.006065 10.406289,-6.070629 l 10.051529,-5.569245 0.827773,0.0017 0.827773,0.0017 9.851205,5.467034 c 5.418163,3.006868 9.977657,5.560397 10.132217,5.674505 0.15455,0.114109 0.39189,0.402487 0.52742,0.640839 0.24496,0.430824 0.24642,0.500099 0.24801,11.794865 0.002,12.26825 0.0317,11.66912 -0.615,12.27233 -0.26086,0.24329 -19.007967,10.69629 -20.025599,11.16586 -0.492365,0.22719 -1.20713,0.27188 -1.714673,0.10721 z m 51.134915,-0.27075 c -0.75014,-0.29879 -19.75246,-10.88744 -20.07442,-11.18606 -0.708,-0.65665 -0.6694,0.0503 -0.6694,-12.2608 0,-12.515319 -0.0432,-11.806592 0.75572,-12.402963 0.29982,-0.223811 18.49459,-10.329924 19.78491,-10.989343 0.57482,-0.293759 1.59919,-0.251961 2.28659,0.0933 0.31395,0.157689 2.30198,1.249509 4.41785,2.426269 2.11586,1.176759 3.92876,2.170927 4.02866,2.209264 0.1628,0.06247 0.18164,-1.588461 0.18164,-15.916239 V 57.512286 l 0.3595,-0.359498 c 0.27961,-0.279612 0.43071,-0.345182 0.67996,-0.295076 0.44411,0.08928 9.82317,5.34329 10.22491,5.727846 0.17927,0.1716 0.37853,0.501275 0.4428,0.732609 0.16673,0.600177 0.15995,55.489663 -0.007,56.090573 -0.0681,0.24513 -0.29851,0.61762 -0.5121,0.82777 -0.21894,0.21542 -4.717,2.77844 -10.31135,5.87546 -9.35885,5.18104 -9.95999,5.4952 -10.57347,5.52566 -0.35777,0.0178 -0.81446,-0.033 -1.01486,-0.11283 z m 5.74497,-15.23637 c 2.48067,-1.37348 4.61297,-2.60744 4.73845,-2.74212 0.21821,-0.23423 0.22813,-0.47225 0.22813,-5.47175 0,-4.80503 -0.0167,-5.24681 -0.20694,-5.47391 -0.28052,-0.33487 -9.10269,-5.224736 -9.54895,-5.292699 -0.29257,-0.04456 -1.17105,0.399437 -5.01105,2.53264 -3.14518,1.747219 -4.70767,2.679419 -4.81463,2.872469 -0.12525,0.22606 -0.15922,1.35351 -0.16254,5.39367 l -0.004,5.10786 0.26607,0.30021 c 0.42036,0.47431 9.17768,5.26574 9.62933,5.26854 0.27092,0.002 1.63665,-0.69564 4.88632,-2.49491 z m 41.27034,15.11363 c -2.87531,-1.51482 -19.5334,-10.82637 -19.79243,-11.06358 -0.69498,-0.63644 -0.66539,-0.0889 -0.66539,-12.31476 0,-10.966301 0.006,-11.253837 0.23384,-11.700917 0.1286,-0.252089 0.38136,-0.561854 0.5617,-0.688366 0.28825,-0.202231 18.76967,-10.450309 19.74509,-10.948803 0.56752,-0.290029 1.59978,-0.251908 2.26508,0.08365 0.30212,0.15238 4.80643,2.629679 10.00958,5.505111 6.15709,3.402616 9.59144,5.366458 9.83594,5.624442 0.20662,0.218012 0.43249,0.600964 0.50191,0.851003 0.0781,0.281324 0.1255,1.964671 0.12431,4.4161 -0.002,4.49988 -0.0337,4.68264 -0.90393,5.24202 -1.78643,1.14834 -9.74695,5.63728 -9.99695,5.63728 -0.16706,0 -0.42936,-0.10166 -0.5829,-0.22591 l -0.27917,-0.22592 -0.0591,-4.44105 c -0.0498,-3.73813 -0.0872,-4.46821 -0.2365,-4.61261 -0.0976,-0.0943 -2.22555,-1.30413 -4.72887,-2.688384 -3.12536,-1.728231 -4.66303,-2.516225 -4.90751,-2.514897 -0.54395,0.003 -9.48615,4.968301 -9.70778,5.390451 -0.13714,0.26123 -0.16763,1.24516 -0.16763,5.40822 v 5.0889 l 0.32519,0.34241 c 0.18444,0.1942 4.49671,2.60682 9.96284,5.57399 5.46613,2.96717 9.7784,5.37979 9.96284,5.57399 0.3698,0.38937 0.43215,0.96113 0.1489,1.36552 -0.097,0.13844 -2.31865,1.43867 -4.93707,2.88942 -4.54102,2.51594 -4.79354,2.63945 -5.4703,2.67537 -0.56684,0.0301 -0.81653,-0.0187 -1.24166,-0.24268 z M 10.921369,127.6392 c -0.138919,-0.0698 -0.311864,-0.257 -0.384323,-0.41603 -0.181917,-0.39926 -0.185961,-29.81871 -0.0042,-30.473331 0.06943,-0.250039 0.295292,-0.632914 0.501917,-0.850833 0.244182,-0.25753 3.831924,-2.309535 10.249831,-5.862383 9.814717,-5.433264 9.878845,-5.466474 10.654389,-5.517609 0.586568,-0.03867 0.880097,-3.55e-4 1.182533,0.154291 0.997824,0.510297 19.476905,10.756247 19.768945,10.961132 0.18033,0.126512 0.433096,0.436277 0.561703,0.688366 0.229359,0.44958 0.233829,0.749913 0.233829,15.709147 v 15.2508 l -0.311581,0.24509 c -0.171369,0.1348 -0.419989,0.24509 -0.55249,0.24509 -0.1325,0 -2.49401,-1.30977 -5.247799,-2.91059 -3.57042,-2.07554 -5.082802,-3.01701 -5.271484,-3.28153 l -0.264594,-0.37094 -0.05913,-9.16463 c -0.04321,-6.69732 -0.09643,-9.2283 -0.197686,-9.40113 -0.210081,-0.35859 -9.238002,-5.305263 -9.686694,-5.307642 -0.425642,-0.0023 -9.160362,4.740832 -9.597848,5.211782 l -0.26607,0.28642 v 9.00245 c 0,8.73972 -0.0069,9.01648 -0.234752,9.48323 -0.129114,0.26443 -0.408487,0.59657 -0.62083,0.73808 -1.100254,0.73323 -9.652104,5.6203 -9.905466,5.66061 -0.162599,0.0259 -0.409294,-0.0101 -0.548213,-0.0798 z M 176.07815,111.02068 c -0.87803,-0.49383 -1.63551,-0.95756 -1.6833,-1.0305 -0.15671,-0.23923 -0.10596,-3.6748 0.0573,-3.87921 0.13819,-0.17301 3.31153,-1.9887 3.47572,-1.9887 0.10292,0 2.86097,1.52233 3.26753,1.80354 l 0.32801,0.22688 -0.0324,1.96887 -0.0324,1.96887 -1.65554,0.91717 c -0.91055,0.50444 -1.76198,0.91577 -1.89206,0.91407 -0.13007,-0.002 -0.95489,-0.40715 -1.83292,-0.90099 z"
       id="path847" />
  </g>
</svg>
