<?xml version="1.0" encoding="UTF-8" standalone="no"?>
<svg
   xmlns:dc="http://purl.org/dc/elements/1.1/"
   xmlns:cc="http://creativecommons.org/ns#"
   xmlns:rdf="http://www.w3.org/1999/02/22-rdf-syntax-ns#"
   xmlns:svg="http://www.w3.org/2000/svg"
   xmlns="http://www.w3.org/2000/svg"
   xmlns:xlink="http://www.w3.org/1999/xlink"
   xmlns:sodipodi="http://sodipodi.sourceforge.net/DTD/sodipodi-0.dtd"
   xmlns:inkscape="http://www.inkscape.org/namespaces/inkscape"
   width="210mm"
   height="297mm"
   viewBox="0 0 210 297"
   version="1.1"
   id="svg8"
   inkscape:version="1.0.1 (c497b03c, 2020-09-10)"
   sodipodi:docname="pages.svg">
  <defs
     id="defs2" />
  <sodipodi:namedview
     id="base"
     pagecolor="#ffffff"
     bordercolor="#666666"
     borderopacity="1.0"
     inkscape:pageopacity="0.0"
     inkscape:pageshadow="2"
     inkscape:zoom="0.7"
     inkscape:cx="169.36348"
     inkscape:cy="164.08538"
     inkscape:document-units="mm"
     inkscape:current-layer="layer1"
     inkscape:document-rotation="0"
     showgrid="false"
     inkscape:window-width="1344"
     inkscape:window-height="786"
     inkscape:window-x="11"
     inkscape:window-y="25"
     inkscape:window-maximized="0" />
  <metadata
     id="metadata5">
    <rdf:RDF>
      <cc:Work
         rdf:about="">
        <dc:format>image/svg+xml</dc:format>
        <dc:type
           rdf:resource="http://purl.org/dc/dcmitype/StillImage" />
        <dc:title />
      </cc:Work>
    </rdf:RDF>
  </metadata>
  <g
     inkscape:label="Laag 1"
     inkscape:groupmode="layer"
     id="layer1">
    <image
       sodipodi:absref="/Users/jolijn/Desktop/logos/afbeeldingen/303-3033143_pages-ios-logo-png-transparent-logo-pages-mac.png"
       xlink:href="../afbeeldingen/303-3033143_pages-ios-logo-png-transparent-logo-pages-mac.png"
       width="65.76786"
       height="68.690872"
       preserveAspectRatio="none"
       id="image843"
       x="4.9136891"
       y="4.9136896"
       style="stroke-width:3.62069" />
    <path
       id="rect940"
       style="fill:#ffa02a;fill-opacity:0.99446;fill-rule:evenodd;stroke-width:0.264583"
       d="m 20.686075,8.0181153 c -6.648,0 -11.9997837,5.3517837 -11.9997837,11.9997837 V 54.28299 c 0,6.648 5.3517837,11.999786 11.9997837,11.999786 h 34.265091 c 6.163492,0 11.209713,-4.601028 11.912968,-10.569382 l -45.979621,0.09302 c -0.552286,0.0011 -1.000389,-0.445587 -1.001489,-0.997873 -0.0011,-0.552286 0.445586,-1.000906 0.997871,-1.002006 l 46.070056,-0.09353 V 20.017899 c 0,-6.648 -5.351785,-11.999784 -11.999785,-11.9997837 z m 34.069238,9.9275587 c 0.455941,0.01058 0.954165,0.174484 1.438156,0.629419 1.548768,1.455795 -0.166915,3.408061 -0.166915,3.408061 l -0.158646,0.168982 0.158646,0.632519 c 0,0 0.247216,0.689835 0.233577,1.035596 -0.01364,0.345761 -0.02767,0.494546 -0.300757,0.968933 -0.27309,0.474387 -1.536856,1.670699 -1.536856,1.670699 -3.006505,3.676465 -8.451808,8.366628 -8.485788,9.153965 -0.03399,0.787333 0.544859,1.307105 -0.434081,1.63659 -0.40827,0.137414 -0.825039,-0.316521 -1.002525,-0.734838 -0.343251,-0.976317 0.514626,-1.814692 1.30328,-2.87321 1.602692,-1.877351 8.853207,-9.554972 8.853207,-9.554972 0,0 0.113961,-0.308362 0,-0.400492 -0.04903,-0.03964 -0.142529,-0.02305 -0.233061,0.0047 l -3.475239,3.703651 -8.579321,8.607226 -3.673678,-3.63802 5.404321,-5.537132 8.853206,-8.185029 c 0,0 0.799402,-0.719865 1.802474,-0.696599 z m -16.414501,14.796513 3.661791,3.661791 -10.347171,9.85108 c 0,0 -3.281281,2.979611 -5.527828,4.240051 l -1.889808,-1.877922 c 0,0 1.292167,-2.013598 2.489253,-3.515548 1.197091,-1.50195 4.810561,-5.378482 4.810561,-5.378482 z m -14.409974,16.371094 1.676901,1.653645 -3.519682,2.433445 c 0,0 -0.34795,0.1999 -0.543636,-0.02377 -0.195687,-0.223671 -0.09405,-0.378272 -0.09405,-0.378272 z" />
  </g>
</svg>
