<?xml version="1.0" encoding="UTF-8" standalone="no"?>
<svg
   xmlns:dc="http://purl.org/dc/elements/1.1/"
   xmlns:cc="http://creativecommons.org/ns#"
   xmlns:rdf="http://www.w3.org/1999/02/22-rdf-syntax-ns#"
   xmlns:svg="http://www.w3.org/2000/svg"
   xmlns="http://www.w3.org/2000/svg"
   xmlns:xlink="http://www.w3.org/1999/xlink"
   xmlns:sodipodi="http://sodipodi.sourceforge.net/DTD/sodipodi-0.dtd"
   xmlns:inkscape="http://www.inkscape.org/namespaces/inkscape"
   width="210mm"
   height="297mm"
   viewBox="0 0 210 297"
   version="1.1"
   id="svg8"
   inkscape:version="1.0.1 (c497b03c, 2020-09-10)"
   sodipodi:docname="photoshop.svg">
  <defs
     id="defs2" />
  <sodipodi:namedview
     id="base"
     pagecolor="#ffffff"
     bordercolor="#666666"
     borderopacity="1.0"
     inkscape:pageopacity="0.0"
     inkscape:pageshadow="2"
     inkscape:zoom="0.98994949"
     inkscape:cx="143.15189"
     inkscape:cy="117.56446"
     inkscape:document-units="mm"
     inkscape:current-layer="layer1"
     inkscape:document-rotation="0"
     showgrid="false"
     inkscape:window-width="1344"
     inkscape:window-height="785"
     inkscape:window-x="26"
     inkscape:window-y="26"
     inkscape:window-maximized="0" />
  <metadata
     id="metadata5">
    <rdf:RDF>
      <cc:Work
         rdf:about="">
        <dc:format>image/svg+xml</dc:format>
        <dc:type
           rdf:resource="http://purl.org/dc/dcmitype/StillImage" />
        <dc:title></dc:title>
      </cc:Work>
    </rdf:RDF>
  </metadata>
  <g
     inkscape:label="Laag 1"
     inkscape:groupmode="layer"
     id="layer1">
    <image
       sodipodi:absref="/Users/jolijn/Desktop/logos/afbeeldingen/Adobe_Photoshop_Logo_old.png"
       xlink:href="../afbeeldingen/Adobe_Photoshop_Logo_old.png"
       y="10.723643"
       x="7.6998401"
       id="image843"
       preserveAspectRatio="none"
       height="39.028889"
       width="39.028889" />
    <path
       id="rect854"
       style="fill:#0000ff;fill-rule:evenodd;stroke-width:0.999999"
       d="M 29.101562 40.53125 L 29.101562 188.04102 L 176.61328 188.04102 L 176.61328 40.53125 L 29.101562 40.53125 z M 74.212891 79.171875 C 85.057655 79.072987 104.29343 80.224314 106.18945 99.494141 C 108.08548 118.76396 93.106832 126.24013 75.181641 126.79102 L 75.322266 148.24805 L 60.371094 148.24805 L 60.648438 79.863281 C 60.648438 79.863281 63.368122 79.270747 74.212891 79.171875 z M 77.509766 89.585938 C 75.941303 89.555701 74.90625 89.691406 74.90625 89.691406 L 75.044922 115.99414 C 75.044922 115.99414 93.506196 117.62797 92.486328 102.56641 C 91.721427 91.270234 82.21516 89.676608 77.509766 89.585938 z M 128.92188 94.914062 C 136.9025 94.724995 143.15039 98.689453 143.15039 98.689453 L 142.73438 110.31836 C 142.73438 110.31836 136.55423 106.94432 133.04492 106.30273 C 129.53562 105.66115 124.63228 106.07196 123.35547 108.79492 C 122.07865 111.51788 123.56977 113.35234 135.67578 118.90039 C 147.78179 124.44844 145.08789 137.31055 145.08789 137.31055 C 145.08789 137.31055 142.45763 148.74988 128.89258 149.35352 C 115.32753 149.95715 110.61914 144.92383 110.61914 144.92383 L 110.34375 132.74219 C 110.34375 132.74219 122.11827 137.77373 127.23047 138.2793 C 127.23047 138.2793 131.92965 138.80792 132.76758 135.65039 C 133.6055 132.49286 129.86133 130.66602 129.86133 130.66602 C 127.80664 128.77839 121.94164 127.01335 115.74219 122.63867 C 109.54272 118.26399 106.32894 107.13347 115.60352 99.796875 C 120.08573 96.251239 124.74154 95.013098 128.92188 94.914062 z "
       transform="scale(0.26458333)" />
  </g>
</svg>
