<?xml version="1.0" encoding="UTF-8" standalone="no"?>
<svg
   xmlns:dc="http://purl.org/dc/elements/1.1/"
   xmlns:cc="http://creativecommons.org/ns#"
   xmlns:rdf="http://www.w3.org/1999/02/22-rdf-syntax-ns#"
   xmlns:svg="http://www.w3.org/2000/svg"
   xmlns="http://www.w3.org/2000/svg"
   xmlns:sodipodi="http://sodipodi.sourceforge.net/DTD/sodipodi-0.dtd"
   xmlns:inkscape="http://www.inkscape.org/namespaces/inkscape"
   width="210mm"
   height="297mm"
   viewBox="0 0 210 297"
   version="1.1"
   id="svg8"
   inkscape:version="1.0.1 (c497b03c, 2020-09-10)"
   sodipodi:docname="react.svg">
  <defs
     id="defs2" />
  <sodipodi:namedview
     id="base"
     pagecolor="#ffffff"
     bordercolor="#666666"
     borderopacity="1.0"
     inkscape:pageopacity="0.0"
     inkscape:pageshadow="2"
     inkscape:zoom="0.35"
     inkscape:cx="400"
     inkscape:cy="560"
     inkscape:document-units="mm"
     inkscape:current-layer="layer1"
     inkscape:document-rotation="0"
     showgrid="false"
     inkscape:window-width="1344"
     inkscape:window-height="785"
     inkscape:window-x="161"
     inkscape:window-y="25"
     inkscape:window-maximized="0" />
  <metadata
     id="metadata5">
    <rdf:RDF>
      <cc:Work
         rdf:about="">
        <dc:format>image/svg+xml</dc:format>
        <dc:type
           rdf:resource="http://purl.org/dc/dcmitype/StillImage" />
        <dc:title />
      </cc:Work>
    </rdf:RDF>
  </metadata>
  <g
     inkscape:label="Laag 1"
     inkscape:groupmode="layer"
     id="layer1">
    <path
       style="fill:#63d9fb;stroke:none;stroke-width:1"
       d="m 32.307363,38.133047 c -6.831676,2.63539 -13.989698,4.91546 -19.319386,10.2281 -4.058586,4.04533 -5.7371,9.22464 -2.67725,14.39466 0.977523,1.65181 2.389353,3.0536 3.813874,4.3247 3.488475,3.11307 7.8503,5.16813 12.121778,6.95934 1.387776,0.58185 4.829847,1.06067 5.724978,2.26037 0.359871,0.48223 0.06061,1.27148 -0.04262,1.79746 -0.296041,1.50786 -0.549277,3.02349 -0.757813,4.54574 -0.69455,5.06926 -0.898351,10.33606 0.358924,15.34187 0.396237,1.57775 0.975629,3.146223 1.81034,4.545743 6.067045,10.17071 19.513527,2.47515 26.241598,-2.581043 1.848032,-1.38853 4.118065,-2.93806 5.492775,-4.80579 h 0.1894 c 1.37887,1.71015 3.36385,3.15456 5.11396,4.4749 7.07316,5.336133 21.09203,13.276973 27.02384,2.154303 4.359929,-8.175513 1.30766,-17.236683 0.62939,-25.759183 2.016229,-0.29775 3.973169,-1.24516 5.871579,-1.95448 7.2533,-2.71021 18.23656,-8.63066 17.59788,-17.74373 -0.57352,-8.18271 -10.78931,-13.26239 -17.40847,-15.91009 -1.98403,-0.79361 -4.127339,-1.76981 -6.250389,-2.08347 0.26214,-2.02929 0.78603,-4.0315 1.08491,-6.06099 1.256899,-8.53235 1.597069,-25.3215299 -10.7446,-25.3802299 -1.73098,-0.008 -3.45685,0.24994 -5.11396,0.76231 -4.74556,1.46742 -8.93881,4.1601999 -12.87959,7.1219399 -1.24288,0.93396 -2.42951,1.94122 -3.59871,2.96591 -0.40154,0.35191 -0.9296,1.06578 -1.51524,1.07241 -0.55932,0.006 -1.12489,-0.65534 -1.51525,-0.98851 -1.24837,-1.06541 -2.495425,-2.11718 -3.788119,-3.12879 -3.713489,-2.90625 -8.096149,-5.6802799 -12.690185,-6.9264999 -1.586273,-0.43031 -3.269522,-0.83049 -4.92455,-0.7927 -12.48752,0.28506 -12.318949,16.1314699 -11.036862,25.1047599 0.288087,2.0166 0.531662,4.1264 1.187764,6.06099 m 4.924549,-1.32584 c -1.471304,-5.23386 -1.941598,-11.08195 -1.33531,-16.47831 0.271229,-2.41417 0.833385,-5.25014 2.668727,-6.98813 1.570931,-1.4876 3.879976,-1.40028 5.864001,-1.00328 4.452929,0.89077 8.560382,3.61897 12.121968,6.31138 1.145336,0.86577 4.077337,2.54353 4.483044,3.96028 0.183156,0.64001 -0.517645,1.27982 -0.901382,1.69727 -1.141359,1.24155 -2.265103,2.49182 -3.345473,3.78812 -1.445545,1.73458 -2.983141,4.85182 -4.870001,6.05852 -1.179619,0.75441 -3.466314,0.59227 -4.836475,0.78471 -3.310055,0.46537 -6.545673,1.44289 -9.849099,1.86944 m 55.685293,0 c -3.41518,-0.45988 -6.81747,-1.35066 -10.22791,-1.90921 -1.28891,-0.21119 -3.34112,-0.0335 -4.45785,-0.74494 -1.95486,-1.24534 -3.56462,-4.45463 -5.05922,-6.24793 -1.02317,-1.22773 -2.06092,-2.45091 -3.17293,-3.59871 -0.37635,-0.38847 -1.03434,-0.90271 -0.96218,-1.51525 0.17047,-1.44403 3.28411,-3.27596 4.3713,-4.09609 3.52863,-2.6621 7.40065,-5.25052 11.74315,-6.34112 1.86338,-0.46802 4.21826,-0.71103 5.87139,0.49322 1.98838,1.44857 2.66608,4.23644 3.04584,6.53469 0.9332,5.64713 0.27691,11.90415 -1.15159,17.42534 m -27.84264,-10.41733 c 2.19066,2.19673 4.6965,4.68572 6.25038,7.38683 H 58.824167 c 1.265609,-2.54069 4.003094,-5.66816 6.250394,-7.38683 m -0.56822,12.36555 c 2.4689,-0.27937 5.4725,0.0563 7.95504,0.29245 0.96521,0.0919 2.13328,-0.15853 2.99564,0.39927 0.91957,0.59511 1.52263,1.95883 2.11831,2.85283 1.59707,2.39674 3.05171,4.87928 4.46543,7.38683 1.05708,1.87511 3.73812,5.37931 3.61879,7.57623 -0.13296,2.44693 -2.72214,5.85074 -3.91729,7.95504 -1.46354,2.57687 -2.99943,5.08517 -4.60407,7.57624 -0.5508,0.85498 -1.10272,2.24995 -2.22192,2.43424 -4.78648,0.78793 -10.3247,0.70838 -15.145075,0.24964 -1.417513,-0.13486 -3.801942,0.33392 -5.052209,-0.41632 -1.869624,-1.12166 -3.450973,-4.96205 -4.568846,-6.8133 -1.451605,-2.40394 -2.807371,-4.87588 -4.062942,-7.38683 -0.508744,-1.0173 -1.429256,-2.267 -1.564113,-3.40931 -0.16232,-1.37584 1.330954,-3.35589 1.940841,-4.54574 1.754465,-3.42256 3.612346,-6.8241 5.731607,-10.03851 0.671254,-1.01805 1.430203,-2.77025 2.496557,-3.40684 0.855546,-0.51064 2.048991,-0.33335 2.995641,-0.39832 2.264346,-0.15512 4.564109,-0.0525 6.818609,-0.3076 m -16.667707,1.27168 c -1.14761,3.60155 -4.125636,7.51145 -6.060984,10.79613 h -0.189406 c -1.23663,-2.77669 -2.62308,-6.068 -3.030492,-9.09148 l 9.280882,-1.70465 m 43.752727,1.70465 c -0.5506,2.66039 -1.5035,6.96483 -3.2199,9.09148 l -3.68375,-6.6292 -2.37723,-4.16693 9.28088,1.70465 m -57.958158,1.51524 c 0.740008,3.22805 1.99539,6.39946 3.219898,9.4703 0.531851,1.33379 1.587977,2.9248 1.738176,4.35633 0.107772,1.02639 -0.757055,2.29011 -1.131889,3.2199 -0.983205,2.43822 -1.937431,4.88648 -2.752254,7.38683 -0.252857,0.77562 -0.48772,2.95019 -1.342698,3.27729 -1.244206,0.47598 -4.236248,-1.25178 -5.413405,-1.72416 -4.06067,-1.62927 -8.227975,-3.75327 -11.364345,-6.85725 -1.301785,-1.28834 -2.671378,-2.8142 -2.823471,-4.73439 -0.408359,-5.15487 6.6614,-9.01932 10.589107,-10.89349 2.857943,-1.36372 6.12273,-3.03485 9.280881,-3.50136 m 62.882708,27.84267 -3.33354,-9.6597 -1.60863,-4.35634 1.75807,-4.54574 3.1841,-9.28089 c 5.414159,0.79967 11.739179,4.23019 15.910079,7.66412 1.6823,1.38494 3.66538,3.30911 3.94267,5.59429 0.31915,2.6318 -1.43494,4.54082 -3.18505,6.24756 -3.16724,3.08864 -7.48891,5.09464 -11.55375,6.70761 -1.61601,0.64133 -3.369519,1.4768 -5.113949,1.62909 m -32.57779,-24.35229 c -1.781171,0.25513 -3.442827,0.7741 -4.924548,1.82113 -8.732931,6.17142 -3.265355,20.45129 7.386828,19.06711 1.54403,-0.20077 3.04659,-0.71633 4.35633,-1.5643 8.88578,-5.75226 4.04911,-20.88086 -6.81861,-19.32394 m -22.160471,16.77605 3.790198,6.81861 2.270786,3.97752 -9.280882,-1.70465 c 0.614811,-2.68218 1.481532,-6.93755 3.219898,-9.09148 m 46.783221,0 c 1.27602,2.72839 2.62705,6.09849 3.03049,9.09148 l -9.28088,1.70465 3.89721,-6.81861 2.35318,-3.97752 m -51.328959,14.01603 c 3.160803,0.61292 6.279558,1.37263 9.470287,1.84254 1.516004,0.22331 3.751939,0.0674 5.106569,0.81161 2.005996,1.10215 3.680721,4.49801 5.17286,6.24793 0.977333,1.14628 1.932317,2.32779 2.981625,3.4093 0.412147,0.42484 1.248373,1.03037 1.257654,1.6878 0.01818,1.26788 -3.532228,3.4415 -4.480203,4.15916 -3.510257,2.65774 -7.394022,5.311693 -11.743156,6.340543 -1.671317,0.39529 -3.946648,0.683 -5.492767,-0.25588 -2.206956,-1.34043 -2.975375,-4.247623 -3.393393,-6.628263 -1.028473,-5.85699 0.0027,-11.85017 1.120524,-17.61474 m 55.278639,0.11706 c 0.68091,0.0867 0.73584,1.05556 0.84967,1.5876 0.36006,1.68438 0.61633,3.40495 0.82884,5.11396 0.54151,4.35121 0.69379,9.44831 -0.76899,13.63721 -0.89058,2.550163 -2.70926,4.565813 -5.61683,4.323373 -5.49731,-0.45798 -10.53077,-3.747963 -14.77364,-7.055363 -0.85669,-0.66784 -3.93263,-2.56133 -3.93851,-3.71519 -0.003,-0.56027 0.65307,-1.11769 0.98851,-1.50786 1.04003,-1.20974 2.13176,-2.37326 3.15455,-3.59871 1.53078,-1.83402 3.01497,-4.7484 4.94236,-6.13675 0.93907,-0.67656 2.64126,-0.57257 3.75516,-0.73319 2.41321,-0.34775 4.80749,-0.75118 7.19741,-1.23682 0.99893,-0.20304 2.36568,-0.80763 3.38147,-0.67826 m -21.18561,2.91344 c -1.14079,2.69505 -4.05328,5.28897 -6.06098,7.38682 h -0.1894 c -2.15128,-2.15127 -4.856747,-4.65673 -6.250394,-7.38682 z"
       id="path849" />
    <path
       style="fill:#000000;stroke-width:1"
       id="path847"
       d="" />
  </g>
</svg>
