<?xml version="1.0" encoding="UTF-8" standalone="no"?>
<svg
   xmlns:dc="http://purl.org/dc/elements/1.1/"
   xmlns:cc="http://creativecommons.org/ns#"
   xmlns:rdf="http://www.w3.org/1999/02/22-rdf-syntax-ns#"
   xmlns:svg="http://www.w3.org/2000/svg"
   xmlns="http://www.w3.org/2000/svg"
   xmlns:sodipodi="http://sodipodi.sourceforge.net/DTD/sodipodi-0.dtd"
   xmlns:inkscape="http://www.inkscape.org/namespaces/inkscape"
   width="210mm"
   height="297mm"
   viewBox="0 0 210 297"
   version="1.1"
   id="svg875"
   inkscape:version="1.0.1 (c497b03c, 2020-09-10)"
   sodipodi:docname="Redux.svg">
  <defs
     id="defs869" />
  <sodipodi:namedview
     id="base"
     pagecolor="#ffffff"
     bordercolor="#666666"
     borderopacity="1.0"
     inkscape:pageopacity="0.0"
     inkscape:pageshadow="2"
     inkscape:zoom="0.49497475"
     inkscape:cx="400"
     inkscape:cy="560"
     inkscape:document-units="mm"
     inkscape:current-layer="layer1"
     inkscape:document-rotation="0"
     showgrid="false"
     inkscape:window-width="1344"
     inkscape:window-height="785"
     inkscape:window-x="42"
     inkscape:window-y="59"
     inkscape:window-maximized="0" />
  <metadata
     id="metadata872">
    <rdf:RDF>
      <cc:Work
         rdf:about="">
        <dc:format>image/svg+xml</dc:format>
        <dc:type
           rdf:resource="http://purl.org/dc/dcmitype/StillImage" />
        <dc:title />
      </cc:Work>
    </rdf:RDF>
  </metadata>
  <g
     inkscape:label="Laag 1"
     inkscape:groupmode="layer"
     id="layer1">
    <path
       style="fill:#7549bb;stroke:none;stroke-width:1"
       d="m 112.90731,54.588427 c -4.9e-4,-3.087167 -0.68004,-6.327247 -1.34737,-9.330934 -2.67812,-12.058979 -9.71589,-23.589126 -21.271589,-28.860873 -1.876934,-0.856261 -3.848642,-1.499881 -5.862365,-1.944663 -2.926785,-0.646443 -5.870181,-0.708548 -8.8424,-0.504893 -3.17789,0.217775 -6.398282,1.131135 -9.33093,2.341103 -2.448026,1.0101 -4.775385,2.307988 -6.937132,3.838153 -5.544771,3.924902 -9.979112,9.352524 -12.933451,15.458275 -1.313072,2.713786 -2.309283,5.567536 -3.174373,8.451578 -2.077622,6.926287 -2.945789,14.332891 -2.451983,21.544188 0.171523,2.50421 0.480519,4.996197 0.896258,7.474517 0.759127,4.524767 2.103221,8.953294 3.719719,13.239171 1.0116,2.68203 2.192183,5.328887 3.527434,7.865337 0.456971,0.868117 0.915897,1.735267 1.399298,2.589217 0.203814,0.36004 0.590535,0.81438 0.671436,1.22132 0.03952,0.19883 -0.130829,0.41721 -0.215686,0.58624 -0.199907,0.39864 -0.370746,0.80168 -0.522679,1.22133 -0.403477,1.114337 -0.540852,2.338587 -0.489263,3.517417 0.245926,5.61614 5.642819,9.54197 11.038881,8.59422 6.136431,-1.07818 9.209775,-8.10618 6.4359,-13.479527 -1.281415,-2.48271 -3.755822,-4.242887 -6.484753,-4.757797 -0.760153,-0.14314 -1.52568,-0.1363 -2.296093,-0.12751 -0.253547,0.003 -0.694201,0.1622 -0.917948,0.0151 -0.198148,-0.13043 -0.315688,-0.44993 -0.429223,-0.65023 -0.284764,-0.50269 -0.562836,-1.00979 -0.844376,-1.51444 C 55.079721,89.286789 54.063871,87.094259 53.169861,84.877309 51.782923,81.437572 50.685342,77.864945 49.957676,74.227345 47.609408,62.488504 48.26697,49.59687 53.685358,38.760042 c 2.558287,-5.116574 5.996075,-9.824541 11.004001,-12.750106 2.167609,-1.266368 4.523791,-2.263019 6.937131,-2.95258 3.664955,-1.047311 7.49601,-1.667745 11.285052,-0.98434 10.113068,1.824026 16.491321,11.45257 19.590068,20.546417 0.71423,2.09721 1.32294,4.26164 1.68983,6.448597 0.11676,0.69841 0.21495,1.39798 0.29898,2.10068 0.0264,0.2196 -0.0254,0.66553 0.11334,0.84379 0.11041,0.14212 0.4216,0.15086 0.58477,0.19649 0.52028,0.14563 1.04643,0.268257 1.5633,0.426537 2.06062,0.63099 4.10609,1.28606 6.15548,1.9529 M 88.138817,132.26476 v 0.0489 c 2.518375,1.34248 5.371881,2.3171 8.109605,3.09875 4.070928,1.16173 8.224898,1.87742 12.457528,1.98148 8.09201,0.19786 16.31984,-2.10117 23.00978,-6.6914 4.65032,-3.19059 8.80087,-7.55366 10.9211,-12.84933 1.16807,-2.91701 1.75773,-6.01039 1.9717,-9.13552 0.70251,-10.259137 -3.61024,-20.569081 -10.18488,-28.285908 -2.67226,-3.136367 -5.55557,-6.065587 -8.7657,-8.656754 -8.04365,-6.491597 -17.57928,-10.842494 -27.650819,-13.054704 -4.345966,-0.95464 -8.756418,-1.448057 -13.19032,-1.642197 -1.352252,-0.0592 -2.705482,-0.0632 -4.054803,-0.0471 -0.629227,0.007 -1.340038,-0.0971 -1.954121,0.049 -0.514911,-1.10276 -1.371793,-2.07821 -2.296093,-2.85356 -0.849066,-0.71217 -1.865698,-1.32973 -2.931182,-1.65455 -1.754313,-0.534797 -3.588745,-0.650237 -5.373835,-0.17421 -4.458328,1.18879 -7.415402,5.641497 -6.790572,10.202717 0.156818,1.143647 0.500255,2.267267 1.074767,3.273147 0.75771,1.32636 1.765549,2.406507 3.028888,3.263877 3.478825,2.36058 8.23076,1.83785 11.333905,-0.88424 0.685408,-0.600897 1.264317,-1.353717 1.729398,-2.135367 0.167566,-0.28188 0.354673,-0.96534 0.669287,-1.09431 0.296049,-0.12067 0.753802,-0.0782 1.069881,-0.0782 0.588679,0 1.169542,-0.0489 1.75871,-0.0489 2.258476,0 4.495945,0.0767 6.741719,0.30142 9.525366,0.95313 18.70974,4.250707 26.82032,9.302114 6.10125,3.79979 11.49952,8.665057 15.42241,14.725284 4.79346,7.405144 7.84434,16.748771 4.31373,25.305871 -0.92479,2.24137 -2.22135,4.3616 -3.73433,6.25319 -1.46266,1.82808 -3.17838,3.45635 -5.10758,4.78613 -5.99476,4.13199 -13.7707,5.01183 -20.8114,3.74263 -2.45877,-0.44359 -4.8682,-1.03275 -7.230248,-1.85251 -0.709835,-0.24671 -1.407456,-0.52517 -2.100681,-0.8134 -0.218862,-0.0909 -0.589656,-0.33416 -0.830502,-0.27797 -0.245242,0.0567 -0.452379,0.34294 -0.635089,0.50123 -0.499767,0.43284 -1.006373,0.85541 -1.514444,1.27848 -1.712788,1.42651 -3.485176,2.78951 -5.276129,4.11587 M 36.012624,80.236272 c -0.667479,-2.816867 -1.825003,-5.560457 -2.198386,-8.451574 -0.385109,0.0997 -0.707246,0.44114 -1.025914,0.66977 -0.826203,0.59259 -1.612541,1.249177 -2.393799,1.899407 -3.15278,2.6239 -5.966275,5.607847 -8.397056,8.911287 -6.631653,9.012404 -9.157058,20.700498 -6.302042,31.559058 1.169493,4.44807 3.246724,8.68314 6.398478,12.06671 3.742387,4.01767 8.679133,6.75149 13.869866,8.41542 8.24952,2.64393 16.947315,2.2062 25.257022,0.12897 15.205997,-3.80174 28.708,-12.52592 37.846938,-25.34984 1.442629,-2.02447 2.767039,-4.1315 3.978099,-6.30204 0.37813,-0.67808 0.75771,-1.35763 1.10457,-2.05183 0.1915,-0.38252 0.35223,-0.88717 0.62972,-1.214 0.15779,-0.18613 0.43039,-0.17391 0.65267,-0.21544 0.41135,-0.0767 0.82415,-0.18076 1.22133,-0.313147 1.19641,-0.39815 2.33566,-1.03422 3.27315,-1.88084 4.32594,-3.907267 4.00644,-11.002684 -0.73279,-14.444871 -3.62783,-2.63464 -8.90689,-2.25115 -12.064749,0.970227 -1.198854,1.22328 -2.0445,2.78022 -2.432882,4.44513 -0.499278,2.137327 -0.179779,4.340107 0.775298,6.302044 0.288233,0.5921 0.662447,1.15391 1.081606,1.661 0.139232,0.16806 0.540804,0.48023 0.546177,0.70447 0.0078,0.31754 -0.400595,0.82415 -0.547642,1.1031 -0.533964,1.01223 -1.109941,2.010297 -1.718162,2.980037 -2.479291,3.9527 -5.426107,7.52336 -8.795989,10.74571 -2.603379,2.48906 -5.507203,4.66693 -8.500429,6.66209 -8.787196,5.85846 -18.635481,9.9499 -29.311824,9.9499 -4.373959,0 -8.752608,-0.639 -12.799496,-2.36595 -2.229115,-0.95117 -4.26062,-2.31026 -6.057777,-3.92779 -1.561441,-1.4055 -2.799132,-3.07237 -3.910686,-4.84475 -1.106912,-1.76506 -1.962573,-3.69281 -2.618278,-5.66696 -3.090444,-9.30552 0.75175,-19.002364 6.857696,-26.136371 1.135833,-1.32685 2.350369,-2.576027 3.628364,-3.766087 0.836999,-0.7792 1.712348,-1.63608 2.686917,-2.24284 z"
       id="path1452" />
  </g>
</svg>
