<?xml version="1.0" encoding="UTF-8" standalone="no"?>
<svg
   xmlns:dc="http://purl.org/dc/elements/1.1/"
   xmlns:cc="http://creativecommons.org/ns#"
   xmlns:rdf="http://www.w3.org/1999/02/22-rdf-syntax-ns#"
   xmlns:svg="http://www.w3.org/2000/svg"
   xmlns="http://www.w3.org/2000/svg"
   xmlns:xlink="http://www.w3.org/1999/xlink"
   xmlns:sodipodi="http://sodipodi.sourceforge.net/DTD/sodipodi-0.dtd"
   xmlns:inkscape="http://www.inkscape.org/namespaces/inkscape"
   width="210mm"
   height="297mm"
   viewBox="0 0 210 297"
   version="1.1"
   id="svg8"
   inkscape:version="1.0.1 (c497b03c, 2020-09-10)"
   sodipodi:docname="visual studio code.svg">
  <defs
     id="defs2" />
  <sodipodi:namedview
     id="base"
     pagecolor="#ffffff"
     bordercolor="#666666"
     borderopacity="1.0"
     inkscape:pageopacity="0.0"
     inkscape:pageshadow="2"
     inkscape:zoom="0.49497475"
     inkscape:cx="259.78457"
     inkscape:cy="568.11582"
     inkscape:document-units="mm"
     inkscape:current-layer="svg8"
     inkscape:document-rotation="0"
     showgrid="false"
     inkscape:window-width="1344"
     inkscape:window-height="789"
     inkscape:window-x="37"
     inkscape:window-y="25"
     inkscape:window-maximized="0" />
  <metadata
     id="metadata5">
    <rdf:RDF>
      <cc:Work
         rdf:about="">
        <dc:format>image/svg+xml</dc:format>
        <dc:type
           rdf:resource="http://purl.org/dc/dcmitype/StillImage" />
        <dc:title />
      </cc:Work>
    </rdf:RDF>
  </metadata>
  <g
     inkscape:label="Laag 1"
     inkscape:groupmode="layer"
     id="layer1"
     style="display:none"
     sodipodi:insensitive="true">
    <image
       sodipodi:absref="/Users/jolijn/Desktop/logos/logos/Schermafbeelding 2022-10-31 om 15.53.55.png"
       xlink:href="Schermafbeelding%202022-10-31%20om%2015.53.55.png"
       y="6.0728197"
       x="5.7452388"
       id="image843"
       preserveAspectRatio="none"
       height="80.080551"
       width="76.199997" />
  </g>
  <g
     inkscape:groupmode="layer"
     id="layer2"
     inkscape:label="Laag 2" />
  <path
     style="fill:#800000;stroke:none;stroke-width:0.264583px;stroke-linecap:butt;stroke-linejoin:miter;stroke-opacity:1"
     d="m 57.596582,14.833459 c 0,0 2.939965,-1.469983 2.939965,3.073599 0,4.543582 0.133636,57.329313 0.133636,57.329313 0,0 0.289433,2.484198 -3.207235,2.405425 0,0 0.465937,1.038301 2.672694,0.801809 2.206757,-0.236492 14.527049,-7.113676 14.527049,-7.113676 0,0 1.509125,-0.369871 1.509125,-3.978009 0,-3.608139 -0.133636,-41.82768 -0.133636,-41.82768 0,0 0.526432,-3.373295 -2.389215,-4.866205 -3.408242,-1.745135 -11.776071,-5.690942 -11.776071,-5.690942 0,0 -1.603616,-1.336347 -4.276312,-0.133634 z"
     id="path866"
     sodipodi:nodetypes="cscszcscscc" />
  <path
     style="fill:#800000;stroke:none;stroke-width:0.26458300000000001px;stroke-linecap:butt;stroke-linejoin:miter;stroke-opacity:1;fill-opacity:1"
     d="M 57.877603,59.484003 21.544643,30.00186 c 0,0 -1.370164,-1.039434 -2.882069,0.14174 -1.511904,1.181177 -4.015997,3.779764 -4.015997,3.779764 0,0 -1.464657,1.889879 0.283482,3.449031 1.74814,1.559153 39.593006,37.750372 39.593006,37.750372 0,0 2.689383,2.466411 3.307292,-0.566966 0.519716,-2.551339 0.04725,-15.071798 0.04725,-15.071798 z"
     id="path868"
     sodipodi:nodetypes="ccscscscc" />
  <path
     style="fill:#800000;stroke:none;stroke-width:0.26458300000000001px;stroke-linecap:butt;stroke-linejoin:miter;stroke-opacity:1"
     d="M 57.930668,33.007786 V 18.040693 c 0,0 -0.668173,-3.006782 -3.474503,-0.734991 -2.806329,2.271791 -22.383821,21.782466 -22.383821,21.782466 l 9.488067,7.550364 z"
     id="path870" />
  <path
     style="fill:#800000;stroke:none;stroke-width:0.26458300000000001px;stroke-linecap:butt;stroke-linejoin:miter;stroke-opacity:1"
     d="m 23.185631,47.908061 7.750817,7.483549 -8.68626,6.548102 c 0,0 -2.338608,1.804069 -3.942226,0.133635 -1.603617,-1.670433 -3.541321,-3.541321 -3.541321,-3.541321 0,0 -1.336348,-1.670436 0.400905,-3.340869 1.737252,-1.670434 8.018085,-7.283096 8.018085,-7.283096 z"
     id="path872" />
</svg>
