<?xml version="1.0" encoding="UTF-8" standalone="no"?>
<svg
   xmlns:dc="http://purl.org/dc/elements/1.1/"
   xmlns:cc="http://creativecommons.org/ns#"
   xmlns:rdf="http://www.w3.org/1999/02/22-rdf-syntax-ns#"
   xmlns:svg="http://www.w3.org/2000/svg"
   xmlns="http://www.w3.org/2000/svg"
   xmlns:sodipodi="http://sodipodi.sourceforge.net/DTD/sodipodi-0.dtd"
   xmlns:inkscape="http://www.inkscape.org/namespaces/inkscape"
   width="210mm"
   height="297mm"
   viewBox="0 0 210 297"
   version="1.1"
   id="svg8"
   inkscape:version="1.0.1 (c497b03c, 2020-09-10)"
   sodipodi:docname="wordpress.svg">
  <defs
     id="defs2" />
  <sodipodi:namedview
     id="base"
     pagecolor="#ffffff"
     bordercolor="#666666"
     borderopacity="1.0"
     inkscape:pageopacity="0.0"
     inkscape:pageshadow="2"
     inkscape:zoom="0.35"
     inkscape:cx="400"
     inkscape:cy="560"
     inkscape:document-units="mm"
     inkscape:current-layer="layer1"
     inkscape:document-rotation="0"
     showgrid="false"
     inkscape:window-width="1344"
     inkscape:window-height="785"
     inkscape:window-x="551"
     inkscape:window-y="25"
     inkscape:window-maximized="0" />
  <metadata
     id="metadata5">
    <rdf:RDF>
      <cc:Work
         rdf:about="">
        <dc:format>image/svg+xml</dc:format>
        <dc:type
           rdf:resource="http://purl.org/dc/dcmitype/StillImage" />
        <dc:title></dc:title>
      </cc:Work>
    </rdf:RDF>
  </metadata>
  <g
     inkscape:label="Laag 1"
     inkscape:groupmode="layer"
     id="layer1">
    <path
       style="fill:#800000;stroke:none;stroke-width:1"
       d="m 87.264625,6.8809243 c -6.433167,0.84467 -12.646155,1.34463 -18.955926,3.09857 C 54.583697,13.794611 41.692391,21.676175 31.862103,31.956629 24.717487,39.428546 19.028029,48.29044 15.088259,57.838754 2.5222661,88.293279 10.191686,125.06613 34.042217,147.8723 c 9.20456,8.80138 20.45235,15.53985 32.626065,19.32301 11.538327,3.58559 23.785678,4.43934 35.724628,2.86946 41.01716,-5.39351 72.52209,-43.02558 70.71308,-84.338931 -1.56897,-35.829619 -26.42456,-66.848401 -61.05285,-76.2157947 -7.65674,-2.07127 -16.846527,-3.6719 -24.788515,-2.62912 m 1.27588,10.1817237 c 7.021528,-0.82849 15.134665,0.68471 21.872215,2.6052 30.12134,8.585994 51.72234,36.149189 52.4906,67.516141 0.8789,35.875001 -26.81443,69.002121 -62.8799,72.877151 -30.017801,3.22524 -60.024668,-11.8644 -73.407096,-39.52201 -4.510691,-9.32231 -6.878869,-19.39173 -7.330676,-29.709774 -0.494805,-11.299554 2.358773,-22.350678 6.841667,-32.626062 3.713977,-8.512674 9.805391,-16.365161 16.663791,-22.570315 8.90965,-8.061187 19.835372,-13.865494 31.532454,-16.638501 4.727863,-1.12085 9.430391,-1.36707 14.216945,-1.93183 M 39.874809,55.833807 c 2.389176,0.64632 5.398976,0.18336 7.837547,0.0162 2.240262,-0.15329 4.507136,-0.0166 6.743935,-0.22948 1.912179,-0.1819 4.498569,-0.76917 6.379398,-0.25445 2.132177,0.58344 2.349442,3.353377 0.544072,4.436057 -1.877913,1.12605 -5.853918,0.93503 -8.017081,0.9529 l 15.184426,43.926716 4.92125,14.21694 2.313352,6.3794 c 1.80938,-2.72546 2.549025,-6.918 3.584675,-10.02477 2.173005,-6.51901 4.510052,-12.98335 6.683058,-19.502737 0.771725,-2.314987 1.597583,-4.610477 2.369491,-6.926204 0.322615,-0.96784 0.945609,-2.06911 0.648511,-3.09856 -1.636225,-5.670007 -4.183063,-11.250524 -6.282249,-16.768701 -0.876347,-2.303877 -1.481843,-5.845177 -3.007249,-7.779774 -0.497228,-0.63065 -1.629116,-0.58727 -2.35582,-0.60458 -1.991284,-0.0474 -6.62856,0.0213 -6.391793,-2.968427 0.263014,-3.32111 5.085657,-2.31517 7.303135,-2.10411 7.249549,0.68989 14.433662,0.32645 21.689953,0.14855 2.16097,-0.0529 6.2097,-1.29283 7.99995,0.25682 1.38524,1.19914 0.85247,3.266797 -0.70939,4.015917 -1.99311,0.95637 -5.46551,0.78831 -7.655097,0.83352 l 2.551207,7.655274 5.58817,16.221901 8.62878,24.970791 5.28633,15.31055 c 0.76863,-1.03164 0.95691,-2.6068 1.33804,-3.82764 0.9086,-2.91119 1.77146,-5.83642 2.67661,-8.74888 3.31802,-10.67748 9.07934,-22.582164 5.93284,-33.901955 -2.15423,-7.749687 -9.09356,-13.859514 -10.07763,-21.872218 -0.73472,-5.983517 4.4747,-12.762084 10.88399,-11.847454 -1.01433,-1.76965 -3.45545,-3.169287 -5.10352,-4.323407 -4.82356,-3.37799 -10.07526,-6.202787 -15.6751,-8.070857 -20.061925,-6.692354 -42.748341,-3.295047 -59.419531,9.988504 -3.454536,2.75262 -6.706206,5.886727 -9.477781,9.331967 -1.030364,1.280797 -2.321554,2.645627 -2.916479,4.192167 m 105.351201,4.738987 c 0.003,4.613577 0.38805,9.074234 -0.4101,13.670141 -1.05607,6.081017 -3.42155,11.717854 -5.47863,17.497771 -3.58668,10.077814 -7.03611,20.209574 -10.70736,30.256584 -2.21238,6.05441 -5.06634,12.32208 -6.55201,18.59139 4.81353,-2.27654 9.21058,-6.11201 12.94106,-9.8425 13.22796,-13.22796 19.55341,-31.765037 16.97467,-50.306118 -0.69882,-5.025327 -2.05981,-9.918144 -4.06094,-14.581481 -0.75751,-1.76491 -1.43318,-3.820167 -2.70669,-5.285787 M 34.771291,64.582691 c -2.563972,6.608697 -4.599,13.103834 -5.087115,20.231808 -1.191307,17.394611 5.659438,34.945251 18.392899,46.859231 4.365696,4.085 10.151445,9.2237 16.039448,10.91989 -1.447395,-6.10745 -4.46722,-12.16351 -6.666654,-18.04458 C 52.904457,112.39446 48.393493,100.22384 43.77973,88.095329 41.658489,82.519012 39.709309,76.871055 37.505318,71.326628 36.671075,69.227808 36.199,66.349781 34.771291,64.582691 m 57.232316,29.709775 -3.70151,10.571574 -8.70241,24.78852 -5.822933,16.58643 c 2.970066,1.27789 6.652437,1.65154 9.842501,2.03321 9.491633,1.13589 18.807005,0.01 27.887085,-2.94455 L 97.289393,107.59806 93.678472,97.937833 Z"
       id="path847" />
  </g>
</svg>
